<?xml version="1.0" encoding="UTF-8"?>
<svg xmlns="http://www.w3.org/2000/svg" viewBox="0 0 11.04 12.48">
  <defs>
    <style>
      .cls-1 {
        fill: #dacaac;
      }

      .cls-2 {
        fill: #595d5e;
      }

      .cls-3 {
        fill: #5e4848;
      }

      .cls-4 {
        fill: #452628;
      }

      .cls-5 {
        fill: #fcf8dc;
      }

      .cls-6 {
        fill: #e8879e;
      }

      .cls-7 {
        fill: #6f5456;
      }

      .cls-8 {
        fill: #b3b3b3;
      }

      .cls-9 {
        fill: #a8817f;
      }

      .cls-10 {
        fill: #b8a887;
      }

      .cls-11 {
        fill: #533637;
      }

      .cls-12 {
        fill: #55756f;
      }
    </style>
  </defs>
  <g id="_Слой_5" data-name="Слой 5">
    <polygon class="cls-9" points="9.12 4.44 9.12 5.99 8.88 5.99 8.88 6.48 8.64 6.48 8.64 6.95 8.4 6.95 8.4 7.19 8.16 7.19 8.16 7.44 7.92 7.44 7.92 7.68 7.68 7.68 7.68 9.48 8.1 9.48 8.1 11.39 7.68 11.39 7.68 12.24 .96 12.24 .96 11.34 .64 11.34 .64 9.96 .89 9.96 .89 9.48 1.2 9.48 1.2 7.68 .96 7.68 .96 7.43 .72 7.43 .72 7.2 .48 7.2 .48 6.96 .24 6.96 .24 6.47 0 6.47 0 4.73 1.19 4.73 1.19 5.52 1.45 5.52 1.45 5.76 1.92 5.76 1.92 5.04 2.16 5.04 2.16 3.84 2.4 3.84 2.4 2.88 2.64 2.88 2.64 1.68 1.45 1.68 1.45 1.2 3.93 1.2 3.93 1.44 5.76 1.44 5.76 .72 6 .72 6 .48 5.76 .48 5.76 0 6.01 0 6.01 .24 6.24 .24 6.24 .48 6.48 .48 6.48 2.55 6.84 2.55 6.84 2.93 6.72 2.93 6.72 3.84 6.96 3.84 6.96 4.8 7.19 4.8 7.19 5.76 7.68 5.76 7.68 5.52 7.92 5.52 7.92 4.44 9.12 4.44"/>
  </g>
  <g id="_Слой_4" data-name="Слой 4">
    <polygon class="cls-6" points="6.24 5.52 6.24 6.25 5.26 6.25 5.26 6.24 5.03 6.24 5.03 5.99 4.34 5.99 4.34 6.23 3.36 6.23 3.36 5.28 3.85 5.28 3.85 5.04 4.32 5.04 4.32 4.8 5.28 4.8 5.28 5.04 5.76 5.04 5.76 5.28 6.01 5.28 6.01 5.52 6.24 5.52"/>
    <polygon class="cls-2" points="7.2 10.32 7.2 10.8 2.16 10.8 2.16 10.56 1.68 10.56 1.68 10.31 1.92 10.31 1.92 9.6 6.96 9.6 6.96 10.32 7.2 10.32"/>
    <polygon class="cls-10" points="10.65 9.83 10.65 10.07 10.4 10.07 10.4 11.51 10.08 11.51 10.08 11.75 9.51 11.75 9.51 11.51 9.35 11.51 9.35 11.29 9.11 11.29 9.11 9.83 9.36 9.83 9.36 10.07 10.08 10.07 10.08 9.83 10.65 9.83"/>
    <polygon class="cls-8" points="7.21 6.94 7.21 8.88 6.96 8.88 6.96 9.84 6.72 9.84 6.72 10.08 6.48 10.08 6.48 10.32 2.4 10.32 2.4 10.08 2.16 10.08 2.16 9.84 1.92 9.84 1.92 9.11 1.68 9.11 1.68 6.94 7.21 6.94"/>
    <rect class="cls-1" x="9.36" y="10.31" width=".25" height=".25"/>
    <rect class="cls-1" x="9.84" y="10.55" width=".25" height=".25"/>
    <rect class="cls-1" x="10.08" y="10.31" width=".25" height=".25"/>
    <rect class="cls-1" x="9.36" y="10.8" width=".25" height=".25"/>
    <rect class="cls-1" x="9.6" y="11.04" width=".25" height=".25"/>
    <polygon class="cls-12" points="10.56 6.72 10.56 7.19 10.32 7.19 10.32 7.91 10.08 7.91 10.08 8.87 9.6 8.87 9.6 8.64 9.84 8.64 9.84 7.68 10.08 7.68 10.08 6.96 10.32 6.96 10.32 6.72 10.56 6.72"/>
    <rect class="cls-12" x="9.84" y="8.87" width=".24" height="0"/>
  </g>
  <g id="_Слой_3" data-name="Слой 3">
    <polygon class="cls-7" points="6.24 6.23 6.24 6.48 4.8 6.48 4.8 6.23 4.55 6.23 4.55 6.47 3.37 6.47 3.37 6.23 3.12 6.23 3.12 6 3.6 6 3.6 6.23 4.32 6.23 4.32 5.99 5.04 5.99 5.04 6.23 6.24 6.23"/>
    <rect class="cls-7" x="3.36" y="6.23" width="0" height=".24"/>
    <rect class="cls-7" x="4.55" y="6.23" width="0" height=".24"/>
    <rect class="cls-7" x="6.48" y="5.04" width=".24" height=".24"/>
    <rect class="cls-7" x="6" y="3.36" width=".24" height=".24"/>
    <rect class="cls-7" x="5.28" y="3.36" width=".24" height=".24"/>
    <rect class="cls-7" x="5.28" y="2.63" width=".24" height=".01"/>
    <polygon class="cls-11" points="2.64 1.68 2.64 2.16 2.4 2.16 2.4 1.92 1.92 1.92 1.92 1.43 2.16 1.43 2.16 1.68 2.64 1.68"/>
    <polygon class="cls-4" points="2.64 3.84 2.64 4.32 2.4 4.32 2.4 4.08 2.16 4.08 2.16 3.11 2.4 3.11 2.4 3.84 2.64 3.84"/>
    <polygon class="cls-4" points="5.76 1.19 5.76 1.44 5.52 1.44 5.52 1.68 5.28 1.68 5.28 1.92 4.08 1.92 4.08 1.68 3.84 1.68 3.84 1.44 3.6 1.44 3.6 .48 4.08 .48 4.08 1.2 4.32 1.2 4.32 1.44 4.56 1.44 4.56 .96 4.32 .96 4.32 0 4.56 0 4.56 .72 4.8 .72 4.8 .96 5.04 .96 5.04 1.19 5.76 1.19"/>
    <polygon class="cls-11" points="6.96 2.4 6.96 3.36 6.72 3.36 6.72 2.64 6.48 2.64 6.48 2.16 6.72 2.16 6.72 2.4 6.96 2.4"/>
    <rect class="cls-11" x="5.64" y="1.32" width=".96" height=".24" transform="translate(4.69 7.56) rotate(-90)"/>
    <rect class="cls-7" x="6.72" y="5.76" width=".24" height=".48"/>
    <polygon class="cls-5" points="6.72 5.52 6.72 6 6.48 6 6.48 6.23 6.24 6.23 6.24 5.28 6.48 5.28 6.48 5.52 6.72 5.52"/>
    <polygon class="cls-5" points="3.6 5.04 3.6 5.52 3.36 5.52 3.36 6 2.88 6 2.88 5.22 3.36 5.22 3.36 5.04 3.6 5.04"/>
    <polygon class="cls-7" points="1.2 3.84 1.2 4.8 .96 4.8 .96 5.04 .24 5.04 .24 4.8 0 4.8 0 3.84 .24 3.84 .24 3.6 .72 3.6 .72 4.08 .48 4.08 .48 4.32 .96 4.32 .96 3.84 1.2 3.84"/>
    <polygon class="cls-7" points="5.76 5.76 5.76 6 5.28 6 5.28 5.76 5.04 5.76 5.04 5.52 5.52 5.52 5.52 5.76 5.76 5.76"/>
    <polygon class="cls-7" points="4.56 5.52 4.56 5.75 4.32 5.75 4.32 5.99 3.84 5.99 3.84 5.75 4.08 5.75 4.08 5.52 4.56 5.52"/>
    <polygon class="cls-7" points="4.08 4.32 4.08 4.56 3.84 4.56 3.84 4.79 3.6 4.79 3.6 4.32 4.08 4.32"/>
    <polygon class="cls-7" points="4.8 3.84 4.8 4.08 4.56 4.08 4.56 4.32 4.08 4.32 4.08 4.08 4.32 4.08 4.32 3.84 4.8 3.84"/>
    <polygon class="cls-7" points="6.48 4.79 6.48 5.04 6 5.04 6 4.79 5.76 4.79 5.76 4.56 5.04 4.56 5.04 4.32 6 4.32 6 4.56 6.24 4.56 6.24 4.79 6.48 4.79"/>
    <rect class="cls-7" x=".72" y="11.99" width=".24" height=".01"/>
    <polygon class="cls-7" points="4.32 11.51 4.32 11.76 4.08 11.76 4.08 12 3.6 12 3.6 12.24 3.12 12.24 3.12 12.48 1.44 12.48 1.44 12.24 .96 12.24 .96 11.99 .72 11.99 .72 11.52 .48 11.52 .48 9.84 .72 9.84 .72 9.36 .96 9.36 .96 9.12 1.2 9.12 1.2 9.6 .96 9.6 .96 10.08 .72 10.08 .72 11.28 .96 11.28 .96 11.75 1.2 11.75 1.2 12 1.68 12 1.68 12.24 2.88 12.24 2.88 12 3.36 12 3.36 11.52 3.12 11.52 3.12 11.28 2.4 11.28 2.4 11.04 2.16 11.04 2.16 10.8 2.64 10.8 2.64 11.04 4.08 11.04 4.08 11.28 3.84 11.28 3.84 11.51 4.32 11.51"/>
    <polygon class="cls-7" points="8.16 9.36 8.16 11.52 7.92 11.52 7.92 12 7.68 12 7.68 12.24 7.2 12.24 7.2 12.48 6 12.48 6 12.24 5.52 12.24 5.52 12 5.04 12 5.04 11.76 4.56 11.76 4.56 11.28 5.04 11.28 5.04 10.8 5.52 10.8 5.52 11.04 6.48 11.04 6.48 10.8 6.96 10.8 6.96 11.04 6.72 11.04 6.72 11.28 5.76 11.28 5.76 11.52 5.52 11.52 5.52 11.76 5.76 11.76 5.76 12 6.24 12 6.24 12.24 6.96 12.24 6.96 12 7.44 12 7.44 11.76 7.68 11.76 7.68 11.28 7.92 11.28 7.92 9.6 7.68 9.6 7.68 9.12 7.92 9.12 7.92 9.36 8.16 9.36"/>
    <rect class="cls-7" x="5.52" y="3.6" width=".48" height=".24"/>
    <rect class="cls-7" x="3.84" y="3.36" width=".24" height=".24"/>
    <polygon class="cls-7" points="4.56 2.88 4.56 3.36 4.32 3.36 4.32 3.12 3.6 3.12 3.6 2.88 4.56 2.88"/>
    <rect class="cls-7" x="3.12" y="3.36" width=".24" height=".24"/>
    <rect class="cls-7" x="3.36" y="3.6" width=".48" height=".24"/>
    <polygon class="cls-7" points="9.12 3.84 9.12 4.8 8.4 4.8 8.4 4.56 7.92 4.56 7.92 3.84 8.16 3.84 8.16 4.07 8.4 4.07 8.4 4.32 8.64 4.32 8.64 4.07 8.4 4.07 8.4 3.6 8.88 3.6 8.88 3.84 9.12 3.84"/>
    <polygon class="cls-7" points="6 2.4 6 2.63 5.76 2.63 5.76 2.88 5.52 2.88 5.52 3.12 4.8 3.12 4.8 2.88 5.28 2.88 5.28 2.64 5.52 2.64 5.52 2.4 6 2.4"/>
    <polygon class="cls-7" points="3.36 4.8 3.36 5.28 3.12 5.28 3.12 5.52 2.88 5.52 2.88 5.76 2.4 5.76 2.4 5.52 2.64 5.52 2.64 5.27 2.88 5.27 2.88 5.04 3.12 5.04 3.12 4.8 3.36 4.8"/>
    <rect class="cls-3" x="8.88" y="8.4" width=".24" height=".48"/>
    <rect class="cls-3" x="9.12" y="8.16" width=".24" height=".24"/>
    <polygon class="cls-3" points="10.8 8.4 10.8 9.12 10.56 9.12 10.56 8.64 10.32 8.64 10.32 8.4 9.84 8.4 9.84 8.16 9.36 8.16 9.36 7.91 10.08 7.91 10.08 8.16 10.56 8.16 10.56 8.4 10.8 8.4"/>
    <polygon class="cls-3" points="9.6 9.12 9.6 9.36 9.59 9.36 9.59 9.13 8.88 9.13 8.88 9.12 9.6 9.12"/>
    <polygon class="cls-3" points="9.12 9.6 9.12 11.27 9.36 11.27 9.36 11.51 9.59 11.51 9.59 11.75 10.08 11.75 10.08 12 9.35 12 9.35 11.75 9.12 11.75 9.12 11.51 8.88 11.51 8.88 9.36 8.64 9.36 8.64 8.87 8.88 8.87 8.88 9.13 9.59 9.13 9.59 9.36 10.32 9.36 10.32 9.6 9.12 9.6"/>
    <polygon class="cls-3" points="9.35 11.75 9.35 11.76 9.11 11.76 9.11 11.51 9.12 11.51 9.12 11.75 9.35 11.75"/>
    <rect class="cls-3" x="10.44" y="9.72" width=".48" height=".24" transform="translate(20.52 -.84) rotate(90)"/>
    <rect class="cls-3" x="10.68" y="9.24" width=".48" height=".24" transform="translate(20.28 -1.57) rotate(90)"/>
    <rect class="cls-3" x="10.08" y="11.51" width=".24" height=".25"/>
    <rect class="cls-3" x="10.32" y="10.07" width=".24" height="1.44"/>
  </g>
</svg>