<?xml version="1.0" encoding="UTF-8"?>
<svg xmlns="http://www.w3.org/2000/svg" viewBox="0 0 47 54.98">
  <defs>
    <style>
      .cls-1 {
        fill: #452628;
      }

      .cls-2 {
        fill: #fcf8dc;
      }

      .cls-3 {
        fill: #e8879e;
      }

      .cls-4 {
        fill: #6f5456;
      }

      .cls-5 {
        fill: #a8817f;
      }

      .cls-6 {
        fill: #ec6d80;
      }

      .cls-7 {
        fill: #533637;
      }
    </style>
  </defs>
  <g id="_Слой_5" data-name="Слой 5">
    <polygon class="cls-5" points="39.68 39.55 39.68 50.6 39 50.6 39 53.98 38 53.98 38 54.98 2 54.98 2 53.98 .98 53.98 .98 52.97 0 52.97 0 44.99 .98 44.99 .98 36.98 2 36.98 2 31.98 3.01 31.98 3.01 25.98 4.01 25.98 4.01 22.98 5 22.98 5 17.98 6.02 17.98 6.02 15.99 7.02 15.99 7.02 9.98 8 9.98 8 7.99 7.02 7.99 7.02 2.98 6.02 2.98 6.02 0 11 0 11 1 11.99 1 11.99 1.99 13 1.99 13 3.99 13.99 3.99 13.99 6.62 18.38 6.62 18.38 7.98 19.26 7.98 19.26 2.28 19.81 2.28 19.81 3.53 20.81 3.53 20.81 4.77 21.87 4.77 21.87 7.3 23.36 7.3 23.36 7.98 26.99 7.98 26.99 5.99 28 5.99 28 4.99 28.99 4.99 28.99 2.96 30.01 2.96 30.01 1.99 32 1.99 32 12.98 33.36 12.98 33.36 16.74 34 16.74 34 22.98 36.96 22.98 36.96 31.98 38 31.98 38 39.48 39 39.48 39 39.55 39.68 39.55"/>
  </g>
  <g id="_Слой_4" data-name="Слой 4">
    <polygon class="cls-2" points="11 29.99 11 32.98 10 32.98 10 33.98 9 33.98 9 32.98 8 32.98 8 30.99 7 30.99 7 25.98 8 25.98 8 26.98 9 26.98 9 28.98 10 28.98 10 29.99 11 29.99"/>
    <polygon class="cls-6" points="24 35.68 24 36.98 21 36.98 21 36 18.01 36 18.01 36.98 14.99 36.98 14.99 35.68 16.69 35.68 16.69 33.42 22.27 33.42 22.27 35.68 24 35.68"/>
    <polygon class="cls-3" points="28.56 29.98 28.56 32.8 28 32.8 28 34.99 27 34.99 27 36 22.02 36 22.02 34.99 20 34.99 20 33.99 17.98 33.99 17.98 34.99 17 34.99 17 35.97 12.99 35.97 12.99 34.99 11.99 34.99 11.99 33.81 11 33.81 11 30.99 11.99 30.99 11.99 27.98 12.99 27.98 12.99 26.98 13.99 26.98 13.99 25.98 15.01 25.98 15.01 24.98 23 24.98 23 25.98 24 25.98 24 26.98 25 26.98 25 27.98 25.99 27.98 25.99 28.98 27 28.98 27 29.98 28.56 29.98"/>
    <polygon class="cls-2" points="31.99 25.98 31.99 31.97 30.99 31.97 30.99 32.98 30 32.98 30 33.98 29 33.98 29 32.98 28 32.98 28 29.98 29 29.98 29 28.97 30 28.97 30 26.98 30.99 26.98 30.99 25.98 31.99 25.98"/>
    <polygon class="cls-6" points="13.01 44.97 13.01 49.97 11.01 49.97 11.01 48.98 9.29 48.98 9.29 43.98 11.29 43.98 11.29 44.97 13.01 44.97"/>
    <polygon class="cls-6" points="17.01 43.98 17.01 45.97 13.86 45.97 13.86 42.67 16.01 42.67 16.01 43.98 17.01 43.98"/>
    <polygon class="cls-6" points="28 44.96 28 46.97 25 46.97 25 45.97 24 45.97 24 43.98 26.43 43.98 26.43 44.96 28 44.96"/>
    <rect class="cls-6" x="29.01" y="47.91" width="2.99" height="2.06"/>
  </g>
  <g id="_Слой_3" data-name="Слой 3">
    <rect class="cls-4" x="9" y="17.98" width="1" height="1"/>
    <rect class="cls-4" x="12.99" y="22.98" width="1" height="1"/>
    <polygon class="cls-1" points="26 7.99 26 8.99 22 8.99 22 7.99 20 7.99 20 8.98 18.01 8.98 18.01 10.97 17.01 10.97 17.01 6.99 13.99 6.99 13.99 5.99 18 5.99 18 4.99 19 4.99 19 1.99 20 1.99 20 2.96 21 2.96 21 3.99 22 3.99 22 5.99 23 5.99 23 6.99 25 6.99 25 7.99 26 7.99"/>
    <rect class="cls-1" x="18" y="6.98" width=".01" height=".01"/>
    <rect class="cls-4" x="23" y="14.98" width="1" height="1"/>
    <rect class="cls-4" x="28.99" y="17.98" width="1" height="1"/>
    <polygon class="cls-4" points="13.99 19.98 13.99 20.98 11 20.98 11 19.98 10 19.98 10 18.98 11.99 18.98 11.99 19.98 13.99 19.98"/>
    <rect class="cls-1" x="18" y="6.98" width=".01" height=".01"/>
    <rect class="cls-1" x="18" y="6.98" width=".01" height=".01"/>
    <rect class="cls-1" x="17.01" y="5.98" width=".99" height=".01"/>
    <rect class="cls-1" x="18" y="6.98" width=".01" height=".01"/>
    <polygon class="cls-4" points="14.99 13.99 14.99 15.99 13.99 15.99 13.99 14.99 11.99 14.99 11.99 15.99 10 15.99 10 14.99 11 14.99 11 13.99 14.99 13.99"/>
    <polygon class="cls-4" points="17.99 17.98 17.99 18.98 15.99 18.98 15.99 19.98 13.99 19.98 13.99 18.98 14.99 18.98 14.99 17.98 17.99 17.98"/>
    <rect class="cls-4" x="10" y="32.98" width="1.99" height="1"/>
    <polygon class="cls-4" points="29 32.99 29 34.99 27.01 34.99 27.01 33.99 28 33.99 28 32.99 29 32.99"/>
    <rect class="cls-4" x="22" y="17.98" width="1.99" height="1"/>
    <polygon class="cls-4" points="17 27.98 17 32.98 14.02 32.98 14.02 30.99 15.01 30.99 15.01 29.99 16 29.99 16 27.98 17 27.98"/>
    <polygon class="cls-4" points="28.99 18.98 28.99 19.98 28 19.98 28 20.98 25 20.98 25 19.98 24 19.98 24 18.98 25.99 18.98 25.99 19.98 27 19.98 27 18.98 28.99 18.98"/>
    <polygon class="cls-7" points="31.01 8.98 31.01 12.98 29 12.98 29 10.98 28 10.98 28 8.98 29 8.98 29 6.98 30 6.98 30 5.99 31 5.99 31 7.98 30.01 7.98 30.01 8.98 31.01 8.98"/>
    <polygon class="cls-7" points="13 7.98 13 8.98 12 8.98 12 9.98 11 9.98 11 10.99 10 10.99 10 11.98 9.01 11.98 9.01 2.98 10 2.98 10 4.99 11 4.99 11 6.98 12 6.98 12 7.98 13 7.98"/>
    <polygon class="cls-4" points="27.99 14.98 27.99 15.98 25.99 15.98 25.99 14.98 24 14.98 24 13.98 26.99 13.98 26.99 14.98 27.99 14.98"/>
    <polygon class="cls-1" points="47 28.97 47 30.98 46 30.98 46 31.98 45 31.98 45 33.98 44 33.98 44 34.98 43 34.98 43 35.98 41 35.98 41 36.98 38.01 36.98 38.01 37.98 37 37.98 37 33.98 35.99 33.98 35.99 29.98 35 29.98 35 23.98 34 23.98 34 18.98 33 18.98 33 13.97 32 13.97 32 10.98 33 10.98 33 12.98 34 12.98 34 15.98 35 15.98 35 18.98 36 18.98 36 20.97 36.99 20.97 36.99 22.98 38.01 22.98 38.01 23.98 39 23.98 39 24.98 41.01 24.98 41.01 25.97 42.01 25.97 42.01 24.98 43.01 24.98 43.01 26.98 42.01 26.98 42.01 27.98 41.01 27.98 41.01 28.97 40 28.97 40 30.98 44 30.98 44 29.98 45 29.98 45 28.97 47 28.97"/>
    <rect class="cls-4" x="13.99" y="21.98" width="5.01" height="1"/>
    <polygon class="cls-4" points="27 24.98 27 25.98 25.01 25.98 25.01 24.98 24 24.98 24 23.98 21.02 23.98 21.02 22.98 25 22.98 25 23.98 25.99 23.98 25.99 24.98 27 24.98"/>
    <rect class="cls-4" x="5" y="27.98" width="3" height="1" transform="translate(34.98 21.98) rotate(90)"/>
    <rect class="cls-4" x="31" y="27.98" width="3" height="1" transform="translate(60.99 -4.02) rotate(90)"/>
    <polygon class="cls-4" points="40 38.98 40 50.98 39 50.98 39 51.99 38 51.99 38 49.98 39 49.98 39 39.98 38 39.98 38 39.99 37 39.99 37 37.98 38 37.98 38 38.98 40 38.98"/>
    <polygon class="cls-4" points="16.01 41.99 16.01 42.99 15.01 42.99 15.01 44.99 14.01 44.99 14.01 45.97 13.01 45.97 13.01 46.98 12.01 46.98 12.01 47.98 10.01 47.98 10.01 48.98 8.01 48.98 8.01 47.98 7 47.98 7 49.99 6 49.99 6 52.97 5 52.97 5 48.98 6 48.98 6 43.98 7.01 43.98 7.01 41.99 8.01 41.99 8.01 39.99 10.01 39.99 10.01 37.98 5 37.98 5 38.97 4.01 38.97 4.01 39.99 3.01 39.99 3.01 37.99 4.01 37.99 4.01 36.98 11.01 36.98 11.01 38.99 13.01 38.99 13.01 39.99 14.01 39.99 14.01 41 15.01 41 15.01 41.99 16.01 41.99"/>
    <rect class="cls-4" x="5" y="37.98" width=".01" height=".99"/>
    <rect class="cls-4" x="3.01" y="37.98" width="1" height=".01"/>
    <rect class="cls-4" x="4.01" y="38.97" width=".99" height=".01"/>
    <rect class="cls-4" x="7.01" y="47.98" width="1" height=".02"/>
    <polygon class="cls-4" points="36 46.96 36 49.98 35 49.98 35 47.96 34 47.96 34 46.96 33.01 46.96 33.01 48.99 29.98 48.99 29.98 47.96 29.01 47.96 29.01 45.98 26 45.98 26 44.98 25 44.98 25 42.97 26 42.97 26 40.99 27 40.99 27 39.99 29.01 39.99 29.01 38.98 29.98 38.98 29.98 37.98 34.01 37.98 34.01 38.98 30.98 38.98 30.98 40.99 33.01 40.99 33.01 41.98 34 41.98 34 45.96 35 45.96 35 46.96 36 46.96"/>
    <polygon class="cls-4" points="25 30.99 25 32.98 22.02 32.98 22.02 27.98 23.02 27.98 23.02 29.99 24.01 29.99 24.01 30.99 25 30.99"/>
  </g>
</svg>