<?xml version="1.0" encoding="UTF-8"?>
<svg xmlns="http://www.w3.org/2000/svg" viewBox="0 0 12.48 12.72">
  <defs>
    <style>
      .cls-1 {
        fill: #6a5758;
      }

      .cls-2 {
        fill: #faecd2;
      }

      .cls-3 {
        fill: #a3a2a2;
      }

      .cls-4 {
        fill: #402a2c;
      }

      .cls-5 {
        fill: #fff;
      }

      .cls-6 {
        fill: #d789a0;
      }

      .cls-7 {
        fill: #b3b3b3;
      }

      .cls-8 {
        fill: #000205;
      }

      .cls-9 {
        fill: #616162;
      }

      .cls-10 {
        fill: #a18380;
      }
    </style>
  </defs>
  <g id="_Слой_6" data-name="Слой 6">
    <polygon class="cls-10" points="11.28 5.28 11.28 5.99 11.52 5.99 11.52 6.94 11.76 6.94 11.76 7.92 11.52 7.92 11.52 8.89 11.28 8.89 11.28 9.13 11.04 9.13 11.04 9.6 10.8 9.6 10.8 10.08 10.56 10.08 10.56 10.31 10.08 10.31 10.08 10.56 9.84 10.56 9.84 10.8 9.36 10.8 9.36 11.04 9.12 11.04 9.12 11.28 8.65 11.28 8.65 11.52 8.17 11.52 8.17 11.76 7.69 11.76 7.69 12 7.45 12 7.45 12.24 6.01 12.24 6.01 11.53 5.76 11.53 5.76 11.05 6.01 11.05 6.01 10.8 6.25 10.8 6.25 9.89 5.04 9.89 5.04 6.48 4.33 6.48 4.33 6 3.72 6 3.72 4.37 3.02 4.37 3.02 3.61 4.09 3.61 4.09 3.37 4.56 3.37 4.56 3.36 5.28 3.36 5.28 2.88 5.76 2.88 5.76 2.16 6 2.16 6 .96 5.76 .96 5.76 .24 6.24 .24 6.24 .48 6.72 .48 6.72 .72 6.96 .72 6.96 .96 8.64 .96 8.64 1.2 8.89 1.2 8.89 .48 9.13 .48 9.13 0 9.37 0 9.37 .72 9.6 .72 9.6 2.16 9.84 2.16 9.84 3.35 10.08 3.35 10.08 5.28 10.32 5.28 10.32 6.25 10.56 6.25 10.56 7.92 10.8 7.92 10.8 8.89 11.04 8.89 11.04 8.65 11.28 8.65 11.28 7.68 11.52 7.68 11.52 7.19 11.28 7.19 11.28 6.23 11.04 6.23 11.04 5.03 11.28 5.03 11.28 4.56 11.53 4.56 11.53 4.08 11.77 4.08 11.77 4.8 11.53 4.8 11.53 5.28 11.28 5.28"/>
    <polygon class="cls-10" points="4.32 10.56 5.28 10.56 5.28 10.8 5.04 10.8 5.04 11.04 4.49 11.04 4.49 10.8 4.32 10.8 4.32 10.56"/>
  </g>
  <g id="_Слой_4" data-name="Слой 4">
    <polygon class="cls-6" points="4.32 4.8 4.32 5.28 4.08 5.28 4.08 5.76 3.84 5.76 3.84 6 2.4 6 2.4 5.76 2.16 5.76 2.16 5.28 1.93 5.28 1.93 4.8 2.16 4.8 2.16 4.32 2.4 4.32 2.4 4.08 2.64 4.08 2.64 3.85 2.88 3.85 2.88 3.61 3.36 3.61 3.36 3.85 3.6 3.85 3.6 4.08 3.84 4.08 3.84 4.32 4.08 4.32 4.08 4.8 4.32 4.8"/>
    <polygon class="cls-2" points="6.48 4.8 6.48 5.52 6.24 5.52 6.24 5.78 5.76 5.78 5.76 5.28 6.24 5.28 6.24 4.8 6.48 4.8"/>
  </g>
  <g id="_Слой_2" data-name="Слой 2">
    <rect class="cls-3" x="5.77" y="9.36" width=".23" height=".48"/>
    <rect class="cls-3" x="5.52" y="8.87" width=".24" height=".51"/>
    <rect class="cls-3" x="5.28" y="8.41" width=".24" height=".47"/>
    <rect class="cls-3" x="5.04" y="7.92" width=".24" height=".48"/>
    <rect class="cls-3" x="4.8" y="7.43" width=".24" height=".49"/>
    <rect class="cls-3" x="4.56" y="6.96" width=".24" height=".48"/>
    <rect class="cls-3" x="4.32" y="6.48" width=".24" height=".48"/>
    <polygon class="cls-1" points="4.8 11.03 4.8 11.28 4.56 11.28 4.56 11.52 3.85 11.52 3.85 11.04 3.6 11.04 3.6 11.29 3.36 11.29 3.36 10.56 4.32 10.56 4.32 10.8 4.56 10.8 4.56 11.03 4.8 11.03"/>
    <polygon class="cls-1" points="6.48 11.76 6.48 12.48 6 12.48 6 12.72 5.28 12.72 5.28 12.24 5.52 12.24 5.52 12 5.04 12 5.04 11.52 5.28 11.52 5.28 11.29 6.24 11.29 6.24 11.76 6.48 11.76"/>
    <rect class="cls-1" x="4.8" y="6.96" width=".24" height=".48"/>
    <polygon class="cls-1" points="3.84 4.8 3.84 5.28 3.36 5.28 3.36 4.32 3.6 4.32 3.6 4.8 3.84 4.8"/>
    <polygon class="cls-1" points="9.37 .96 9.37 2.64 9.13 2.64 9.13 2.4 8.65 2.4 8.65 1.69 8.89 1.69 8.89 1.44 9.13 1.44 9.13 .96 9.37 .96"/>
    <polygon class="cls-1" points="6.96 1.2 6.96 1.44 6.72 1.44 6.72 1.68 6.24 1.68 6.24 1.2 6 1.2 6 .72 6.72 .72 6.72 1.2 6.96 1.2"/>
    <polygon class="cls-4" points="12.48 3.6 12.48 4.32 12.25 4.32 12.25 4.56 11.53 4.56 11.53 3.6 11.77 3.6 11.77 3.36 12.25 3.36 12.25 3.6 12.48 3.6"/>
    <polygon class="cls-4" points="8.64 .72 8.64 1.44 8.4 1.44 8.4 1.2 7.92 1.2 7.92 1.44 7.2 1.44 7.2 1.2 7.44 1.2 7.44 .72 7.2 .72 7.2 0 7.44 0 7.44 .24 7.92 .24 7.92 .72 8.64 .72"/>
    <polygon class="cls-4" points="10.57 4.8 10.57 5.76 10.32 5.76 10.32 5.28 10.08 5.28 10.08 3.36 9.84 3.36 9.84 2.64 9.6 2.64 9.6 1.68 10.08 1.68 10.08 2.16 9.84 2.16 9.84 2.4 10.08 2.4 10.08 3.13 10.32 3.13 10.32 3.6 10.56 3.6 10.56 4.32 10.32 4.32 10.32 4.8 10.57 4.8"/>
    <polygon class="cls-1" points="5.04 3.85 5.04 5.04 4.8 5.04 4.8 4.08 4.57 4.08 4.57 3.84 4.33 3.84 4.33 3.61 4.09 3.61 4.09 3.36 4.57 3.36 4.57 3.6 4.8 3.6 4.8 3.85 5.04 3.85"/>
    <polygon class="cls-5" points="7.93 3.12 7.93 3.6 7.44 3.6 7.44 3.12 6.96 3.12 6.96 2.88 7.68 2.88 7.68 3.12 7.93 3.12"/>
    <rect class="cls-5" x="6.72" y="3.12" width=".24" height=".24"/>
    <polygon class="cls-5" points="6 2.4 6 2.88 5.76 2.88 5.76 2.64 5.52 2.64 5.52 2.4 6 2.4"/>
    <rect class="cls-8" x="5.52" y="2.64" width=".24" height=".24" transform="translate(11.28 5.52) rotate(180)"/>
    <polygon class="cls-8" points="7.44 3.12 7.44 3.6 7.2 3.6 7.2 3.36 6.96 3.36 6.96 3.12 7.44 3.12"/>
    <polygon class="cls-1" points="6.96 5.28 6.96 5.76 6.72 5.76 6.72 6 5.76 6 5.76 6.24 3.84 6.24 3.84 6 5.52 6 5.52 5.76 6.48 5.76 6.48 5.52 6.72 5.52 6.72 5.28 6.96 5.28"/>
    <polygon class="cls-1" points="6 3.6 6 4.56 5.76 4.56 5.76 3.84 5.52 3.84 5.52 3.6 5.28 3.6 5.28 3.37 5.04 3.37 5.04 3.12 5.52 3.12 5.52 3.36 5.76 3.36 5.76 3.6 6 3.6"/>
    <polygon class="cls-1" points="7.93 8.16 7.45 8.16 7.45 7.92 7.69 7.92 7.69 7.68 7.93 7.68 7.93 6.48 8.17 6.48 8.17 7.92 7.93 7.92 7.93 8.16"/>
    <polygon class="cls-1" points="9.11 7.92 9.11 9.11 8.88 9.11 8.88 9.36 8.65 9.36 8.65 9.6 8.17 9.6 8.17 9.84 7.21 9.84 7.21 9.36 6.73 9.36 6.73 8.4 7.21 8.4 7.21 8.16 7.45 8.16 7.45 8.87 7.69 8.87 7.69 9.36 8.41 9.36 8.41 9.11 8.66 9.11 8.66 8.89 8.88 8.89 8.88 7.92 9.11 7.92"/>
    <polygon class="cls-9" points="7.44 10.31 7.44 10.33 7.45 10.33 7.45 10.57 2.16 10.57 2.16 10.33 5.52 10.33 5.52 9.85 6 9.85 6 9.84 7.93 9.84 7.93 10.31 7.44 10.31"/>
    <rect class="cls-9" x="6.84" y="9.24" width=".24" height="1.93" transform="translate(-3.24 17.17) rotate(-90)"/>
    <polygon class="cls-7" points="6 9.84 6 10.33 1.68 10.33 1.68 9.84 1.45 9.84 1.45 9.36 1.2 9.36 1.2 8.89 .96 8.89 .96 8.41 .72 8.41 .72 7.92 .48 7.92 .48 7.45 .24 7.45 .24 6.96 0 6.96 0 6.48 4.32 6.48 4.32 6.96 4.56 6.96 4.56 7.44 4.8 7.44 4.8 7.92 5.04 7.92 5.04 8.41 5.28 8.41 5.28 8.87 5.52 8.87 5.52 9.36 5.77 9.36 5.77 9.84 6 9.84"/>
    <polygon class="cls-1" points="2.88 4.32 2.88 5.28 2.4 5.28 2.4 4.8 2.64 4.8 2.64 4.32 2.88 4.32"/>
  </g>
</svg>