<?xml version="1.0" encoding="UTF-8"?>
<svg xmlns="http://www.w3.org/2000/svg" viewBox="0 0 9.36 10.09">
  <defs>
    <style>
      .cls-1 {
        fill: #dd8ca4;
      }

      .cls-2 {
        fill: #3e282a;
      }

      .cls-3 {
        fill: #fff;
      }

      .cls-4 {
        fill: #fffbdd;
      }

      .cls-5 {
        fill: #685557;
      }

      .cls-6 {
        fill: #a18380;
      }
    </style>
  </defs>
  <g id="_Слой_4" data-name="Слой 4">
    <polygon class="cls-6" points="9.36 4.33 9.36 6.25 8.88 6.25 8.88 6.73 8.64 6.73 8.64 7.13 8.4 7.13 8.4 8.89 7.92 8.89 7.92 9.61 7.59 9.61 7.59 10.09 2.4 10.09 2.4 9.84 1.92 9.84 1.92 8.41 2.16 8.41 2.16 7.93 1.99 7.93 1.99 7.45 1.52 7.45 1.52 7.21 1.2 7.21 1.2 4.33 2.64 4.33 2.64 4.09 2.88 4.09 2.88 3.85 3.12 3.85 3.12 2.89 3.36 2.89 3.36 1.93 3.6 1.93 3.6 1.21 3.36 1.21 3.36 .49 3.84 .49 3.84 .72 4.08 .72 4.08 .97 4.32 .97 4.32 1.21 6.73 1.21 6.73 1.46 6.96 1.46 6.96 .72 7.2 .72 7.2 .49 7.43 .49 7.43 0 7.68 0 7.68 1.46 7.92 1.46 7.92 3.85 8.64 3.85 8.64 4.09 8.88 4.09 8.88 4.33 9.36 4.33"/>
  </g>
  <g id="_Слой_3" data-name="Слой 3">
    <polygon class="cls-1" points="2.4 5.77 2.4 6.49 1.92 6.49 1.92 6.89 .72 6.89 .72 6.73 .48 6.73 .48 6.49 .24 6.49 .24 6.25 0 6.25 0 6.01 .24 6.01 .24 5.53 .48 5.53 .48 4.81 .72 4.81 .72 4.57 1.45 4.57 1.45 4.81 1.68 4.81 1.68 5.05 1.92 5.05 1.92 5.53 2.16 5.53 2.16 5.77 2.4 5.77"/>
    <rect class="cls-3" x="3.12" y="3.37" width=".39" height=".48"/>
    <polygon class="cls-4" points="5.28 5.29 5.28 6.02 5.04 6.02 5.04 6.49 4.99 6.49 4.99 6.6 4.32 6.6 4.32 5.77 4.8 5.77 4.8 5.53 5.04 5.53 5.04 5.29 5.28 5.29"/>
    <rect x="3.36" y="3.37" width=".48" height=".48"/>
    <polygon class="cls-3" points="6 3.85 6 4.09 4.8 4.09 4.8 3.61 5.14 3.61 5.14 3.85 6 3.85"/>
    <rect x="5.04" y="3.61" width=".72" height=".49"/>
    <polygon class="cls-2" points="6.73 1.21 6.73 1.69 5.53 1.69 5.53 1.93 4.8 1.93 4.8 1.45 4.56 1.45 4.56 1.21 4.8 1.21 4.8 .25 5.04 .25 5.04 .97 5.53 .97 5.53 1.21 5.76 1.21 5.76 .97 6 .97 6 1.21 6.73 1.21"/>
    <polygon class="cls-2" points="8.16 3.37 8.16 3.61 8.4 3.61 8.4 4.09 8.16 4.09 8.16 4.33 8.4 4.33 8.4 4.82 8.16 4.82 8.16 5.3 7.92 5.3 7.92 5.53 7.68 5.53 7.68 3.61 7.92 3.61 7.92 2.41 8.16 2.41 8.16 3.13 8.4 3.13 8.4 3.37 8.16 3.37"/>
  </g>
  <g id="_Слой_2" data-name="Слой 2">
    <polygon class="cls-5" points="2.16 7.45 2.16 7.93 1.92 7.93 1.92 7.69 1.68 7.69 1.68 7.45 2.16 7.45"/>
    <rect class="cls-5" x="1.44" y="7.21" width=".24" height=".24"/>
    <polygon class="cls-5" points="9.36 4.33 9.36 6.25 9.13 6.25 9.13 6.49 8.88 6.49 8.88 6.25 9.12 6.25 9.12 4.33 9.36 4.33"/>
    <rect class="cls-5" x="8.88" y="4.09" width=".24" height=".24"/>
    <polygon class="cls-5" points="8.4 6.73 8.64 6.73 8.64 7.69 8.41 7.69 8.41 8.89 8.16 8.89 8.16 9.13 7.92 9.13 7.92 9.61 7.69 9.61 7.69 10.09 6.96 10.09 6.96 9.85 7.44 9.85 7.44 9.37 7.68 9.37 7.68 8.89 7.92 8.89 7.92 8.65 8.16 8.65 8.16 7.69 8.4 7.69 8.4 6.73"/>
    <polygon class="cls-5" points="7.44 6.25 7.2 6.25 7.2 5.77 7.44 5.77 7.44 5.53 7.92 5.53 7.92 5.29 8.16 5.29 8.16 5.05 8.4 5.05 8.4 5.53 8.16 5.53 8.16 5.77 7.68 5.77 7.68 6.01 7.44 6.01 7.44 6.25"/>
    <rect class="cls-5" x="8.64" y="6.49" width=".24" height=".24"/>
    <polygon class="cls-5" points="6 5.53 6 6.25 5.52 6.25 5.52 6.49 5.28 6.49 5.28 6.73 3.36 6.73 3.36 6.98 .72 6.98 .72 6.73 3.12 6.73 3.12 6.49 5.04 6.49 5.04 6.25 5.28 6.25 5.28 6.01 5.76 6.01 5.76 5.53 6 5.53"/>
    <polygon class="cls-5" points="2.64 4.57 2.64 4.81 2.16 4.81 2.16 4.57 1.92 4.57 1.92 4.33 2.4 4.33 2.4 4.57 2.64 4.57"/>
    <rect class="cls-5" x="2.88" y="4.81" width=".24" height=".24"/>
    <polygon class="cls-5" points="4.08 4.57 4.08 4.81 3.6 4.81 3.6 4.57 3.36 4.57 3.36 4.33 2.88 4.33 2.88 4.09 3.6 4.09 3.6 4.33 3.84 4.33 3.84 4.57 4.08 4.57"/>
    <rect class="cls-5" x="5.99" y="2.65" width=".01" height=".24"/>
    <polygon class="cls-5" points="6.24 2.89 6.24 3.37 6 3.37 6 3.13 5.76 3.13 5.76 2.89 5.28 2.89 5.28 3.13 5.04 3.13 5.04 2.65 5.99 2.65 5.99 2.89 6.24 2.89"/>
    <polygon class="cls-5" points="3.84 2.65 3.84 2.89 3.36 2.89 3.36 3.13 3.12 3.13 3.12 2.65 3.84 2.65"/>
    <rect class="cls-5" x="3.6" y=".97" width=".24" height=".24"/>
    <polygon class="cls-5" points="4.33 1.68 4.33 1.93 4.08 1.93 4.08 2.17 3.84 2.17 3.84 1.21 4.08 1.21 4.08 1.68 4.33 1.68"/>
    <polygon class="cls-5" points="7.44 1.21 7.44 2.65 7.2 2.65 7.2 2.41 6.96 2.41 6.96 1.45 7.2 1.45 7.2 1.21 7.44 1.21"/>
    <polygon class="cls-5" points=".96 5.29 .96 6.25 .48 6.25 .48 5.76 .72 5.76 .72 5.29 .96 5.29"/>
    <polygon class="cls-5" points="1.92 6.01 1.92 6.25 1.2 6.25 1.2 5.29 1.44 5.29 1.44 5.77 1.68 5.77 1.68 6.01 1.92 6.01"/>
  </g>
</svg>