<?xml version="1.0" encoding="UTF-8"?>
<svg xmlns="http://www.w3.org/2000/svg" version="1.1" viewBox="0 0 60 60">
  <!-- Generator: Adobe Illustrator 29.3.0, SVG Export Plug-In . SVG Version: 2.1.0 Build 146)  -->
  <defs>
    <style>
      .st0 {
        fill: #000001;
      }

      .st1 {
        fill: #452628;
      }

      .st2 {
        fill: #402a2c;
      }

      .st3 {
        fill: #fff;
      }

      .st4 {
        fill: #fcf8dc;
      }

      .st5 {
        fill: #412b2d;
      }

      .st6 {
        fill: #2b2b41;
      }

      .st7 {
        fill: #e8879e;
      }

      .st8 {
        fill: #6f5456;
      }

      .st9 {
        fill: #33334d;
      }

      .st10 {
        fill: #fcf9dd;
      }

      .st11 {
        fill: #a8817f;
      }

      .st12 {
        fill: #533637;
      }
    </style>
  </defs>
  <g id="_Слой_2" data-name="Слой_2">
    <polygon class="st11" points="53.96 22.02 53.96 33.03 52.96 33.03 52.96 34.99 51.97 34.99 51.97 44.04 50.92 44.04 50.92 45.01 49.96 45.01 49.96 47.05 48.96 47.05 48.96 47.95 46.96 47.95 46.96 49.06 44.95 49.06 44.95 50.02 42.97 50.02 42.97 51.02 40.93 51.02 40.93 52.02 39.97 52.02 39.97 53.03 38.02 53.03 38.02 54.03 34.96 54.03 34.96 55.02 31.96 55.02 31.96 56.03 28.95 56.03 28.95 54.17 27.96 54.17 27.96 50.02 28.95 50.02 28.95 47.01 22.95 47.01 22.95 48.02 19.96 48.02 19.96 49 15.98 49 15.98 46.57 13.97 46.57 13.97 43.99 15.98 43.99 15.98 43.06 17.96 43.06 17.96 41.98 19.96 41.98 19.96 41.02 20.96 41.02 20.96 40.04 22.96 40.04 22.96 39.2 21.62 39.2 21.62 32.66 22.96 32.66 22.96 31.02 23.96 31.02 23.96 30.02 18.72 30.02 18.72 20.03 22.86 20.03 22.86 18.52 24.97 18.52 24.97 12.84 27.97 12.84 27.97 6.01 27.01 6.01 27.01 4.99 25.97 4.99 25.97 3.99 28.92 3.99 28.92 4.99 30.97 4.99 30.97 6.01 30.96 6.01 30.96 6.02 37.46 6.02 37.46 7.02 41.97 7.02 41.97 6.02 42.97 6.02 42.97 3.99 43.97 3.99 43.97 2.99 45.97 2.99 45.97 17.53 44.76 17.53 44.76 20.03 48.96 20.03 48.96 30.02 46.96 30.02 46.96 31.52 47.95 31.52 47.95 38.02 48.96 38.02 48.96 41.02 49.96 41.02 49.96 42.98 50.92 42.98 50.92 34.01 51.97 34.01 51.97 32.03 52.96 32.03 52.96 22.02 53.96 22.02"/>
    <polygon class="st4" points="31.96 24.01 31.96 28.34 28.96 28.34 28.96 26.02 30.96 26.02 30.96 24.01 31.96 24.01"/>
    <polygon class="st7" points="23.96 26.02 23.96 27.03 22.96 27.03 22.96 28.03 21.96 28.03 21.96 29.01 20.96 29.01 20.96 30.02 14.95 30.02 14.95 29.01 13.94 29.01 13.94 28.03 12.94 28.03 12.94 24.01 13.95 24.01 13.95 22.02 14.95 22.02 14.95 21.03 15.96 21.03 15.96 20.02 19.96 20.02 19.96 21.03 20.96 21.03 20.96 22.02 21.96 22.02 21.96 24.01 22.96 24.01 22.96 26.02 23.96 26.02"/>
    <polygon class="st8" points="31.96 35.03 31.96 38.02 29.96 38.02 29.96 39 31.96 39 31.96 41.02 21.87 41.02 21.87 40.04 22.95 40.04 22.95 40.02 27.96 40.02 27.96 36.03 26.96 36.03 26.96 37.03 25.96 37.03 25.96 34.03 26.96 34.03 26.96 35.03 31.96 35.03"/>
    <polygon class="st8" points="21.87 40.02 21.87 40.04 20.96 40.04 20.96 32.01 21.96 32.01 21.96 31.02 22.96 31.02 22.96 33.01 21.96 33.01 21.96 39.03 22.95 39.03 22.95 40.02 21.87 40.02"/>
    <polygon class="st1" points="49.96 19.03 49.96 21.75 48.78 21.75 48.78 20.92 46.95 20.92 46.95 17.15 45.96 17.15 45.96 11.01 46.96 11.01 46.96 12.04 47.96 12.04 47.96 15.03 48.96 15.03 48.96 19.03 49.96 19.03"/>
    <polygon class="st1" points="58.95 19.03 58.95 20.02 57.95 20.02 57.95 22.01 56.95 22.01 56.95 23.02 53.96 23.02 53.96 19.03 54.96 19.03 54.96 18.03 57.95 18.03 57.95 19.03 58.95 19.03"/>
    <polygon class="st8" points="33.97 25.02 33.97 27.01 32.97 27.01 32.97 28.01 31.96 28.01 31.96 29.02 27.96 29.02 27.96 30.02 21.96 30.02 21.96 29.02 26.96 29.02 26.96 28.02 30.96 28.02 30.96 27.02 31.97 27.02 31.97 26.02 32.97 26.02 32.97 25.02 33.97 25.02"/>
    <rect class="st8" x="28.96" y="22.02" width="1" height="1.99" transform="translate(58.92 46.04) rotate(180)"/>
    <polygon class="st8" points="37.96 12.04 37.96 14.03 33.97 14.03 33.97 15.03 32.97 15.03 32.97 13.04 33.97 13.04 33.97 12.04 37.96 12.04"/>
    <polygon class="st8" points="29.96 15.03 29.96 16.02 25.97 16.02 25.97 15.03 24.96 15.03 24.96 14.03 26.96 14.03 26.96 15.03 29.96 15.03"/>
    <rect class="st3" x="23.97" y="16.01" width="3.99" height="2"/>
    <polygon class="st3" points="37.96 17.02 37.96 18.02 32.96 18.02 32.96 16.02 36.95 16.02 36.95 17.02 37.96 17.02"/>
    <polygon class="st12" points="29.96 7.02 29.96 8.01 28.96 8.01 28.96 9.01 27.97 9.01 27.97 6.02 28.96 6.02 28.96 7.02 29.96 7.02"/>
    <rect class="st0" x="33.96" y="15.03" width="2" height="2.99"/>
    <rect class="st0" x="25.96" y="16.01" width="2" height="2"/>
    <polygon class="st12" points="44.97 6.03 44.97 13.01 43.96 13.01 43.96 11.01 42.97 11.01 42.97 10.01 41.97 10.01 41.97 9.01 42.97 9.01 42.97 8.01 43.96 8.01 43.96 6.03 44.97 6.03"/>
    <polygon class="st8" points="25.97 21.01 25.97 22.01 25.96 22.01 25.96 25.02 24.96 25.02 24.96 22.01 23.96 22.01 23.96 21.01 22.96 21.01 22.96 20.02 23.7 20.02 23.7 20.01 22.96 20.01 22.96 20.02 20.96 20.02 20.96 19.02 23.96 19.02 23.96 20.01 24.96 20.01 24.96 21.01 25.97 21.01"/>
    <polygon class="st8" points="16.95 23.02 16.95 27.02 14.95 27.02 14.95 25.02 15.95 25.02 15.95 23.02 16.95 23.02"/>
    <polygon class="st8" points="28.96 20.01 28.96 22.02 27.96 22.02 27.96 21.01 26.96 21.01 26.96 20.01 28.96 20.01"/>
    <rect class="st8" x="22.96" y="20.01" width=".74" height=".01"/>
    <rect class="st8" x="22.96" y="21.01" width="1" height=".01"/>
    <rect class="st8" x="22.96" y="20.01" width=".74" height=".01"/>
    <rect class="st8" x="22.96" y="20.01" width=".74" height=".01"/>
    <rect class="st8" x="32.97" y="27.01" width=".99" height=".01"/>
    <rect class="st8" x="30.95" y="27.02" width=".01" height="1"/>
    <rect class="st8" x="31.96" y="28.01" width="1.01" height=".01"/>
    <rect class="st8" x="31.96" y="26.02" width=".01" height="1"/>
    <polygon class="st8" points="49.96 21.02 49.96 28.02 48.96 28.02 48.96 31.01 47.96 31.01 47.96 33.03 46.96 33.03 46.96 34.02 45.96 34.02 45.96 35.01 43.96 35.01 43.96 34.01 44.95 34.01 44.95 33.03 45.96 33.03 45.96 32.03 46.96 32.03 46.96 30.02 47.96 30.02 47.96 27.02 48.96 27.02 48.96 22.02 47.96 22.02 47.96 21.01 46.96 21.01 46.96 20.01 45.96 20.01 45.96 21.02 44.96 21.02 44.96 22.02 43.97 22.02 43.97 28.02 42.97 28.02 42.97 29.01 41.97 29.01 41.97 27.02 42.97 27.02 42.97 23.01 41.97 23.01 41.97 20.03 43.97 20.03 43.97 16.02 44.96 16.02 44.96 15.03 45.96 15.03 45.96 16.02 46.97 16.02 46.97 17.03 47.96 17.03 47.96 19.03 48.96 19.03 48.96 21.02 49.96 21.02"/>
    <rect class="st8" x="21.87" y="40.02" width=".09" height=".02"/>
    <rect class="st8" x="21.87" y="40.02" width="1.08" height=".02"/>
    <rect class="st8" x="21.87" y="40.02" width="1.08" height=".02"/>
    <polygon class="st8" points="17.94 48.02 17.94 50.02 15.98 50.02 15.98 51.02 13.97 51.02 13.97 48.02 10.97 48.02 10.97 46.01 11.97 46.01 11.97 45.03 15.98 45.03 15.98 47.01 16.96 47.01 16.96 48.02 17.94 48.02"/>
    <polygon class="st8" points="30.95 55.02 30.95 56.03 28.95 56.03 28.95 57.01 25.96 57.01 25.96 54.03 23.96 54.03 23.96 52.02 24.97 52.02 24.97 51.02 27.96 51.02 27.96 53.03 28.95 53.03 28.95 54.03 29.96 54.03 29.96 55.02 30.95 55.02"/>
    <polygon class="st8" points="20.96 25.02 20.96 27.02 18.96 27.02 18.96 23.03 19.96 23.03 19.96 25.02 20.96 25.02"/>
    <polygon class="st1" points="41.97 7.02 41.97 8.01 40.96 8.01 40.96 9.01 34.96 9.01 34.96 10.02 32.96 10.02 32.96 9.01 30.97 9.01 30.97 8.02 31.97 8.02 31.97 7.02 33.96 7.02 33.96 8.02 34.97 8.02 34.97 6.02 33.96 6.02 33.96 5.01 32.96 5.01 32.96 4.99 32.94 4.99 32.94 2.99 33.96 2.99 33.96 3.99 34.97 3.99 34.97 5.01 36.96 5.01 36.96 6.02 37.95 6.02 37.95 5.02 38.96 5.02 38.96 7.02 41.97 7.02"/>
  </g>
  <g id="_Слой_5" data-name="Слой_5">
    <polygon class="st2" points="16.01 30 16.01 29 14 29 14 28 13 28 13 25.99 12.02 25.99 12.02 26.96 11 26.96 11 30 12.02 30 12.02 32 12.99 32 12.99 32.98 15.98 32.98 15.98 31 17.03 31 17.03 30 16.01 30"/>
    <polygon class="st2" points="31 27.97 31 29 30 29 30 31 28.98 31 28.98 31.98 25.98 31.98 25.98 32.98 21 32.98 21 31.98 20.01 31.98 20.01 31 19.01 31 19.01 30.01 21 30.01 21 29 22 29 22 28 23.01 28 23.01 25.01 26.98 25.01 26.98 25.98 29 25.98 29 27.97 31 27.97"/>
  </g>
  <g id="_Слой_4" data-name="Слой_4">
    <g>
      <polygon class="st6" points="40.5 15.52 40.5 18.22 39.58 18.22 39.58 21.1 35.5 21.1 35.5 20.49 32.7 20.49 32.7 13.65 37.51 13.65 37.51 14.54 39.58 14.54 39.58 15.52 40.5 15.52"/>
      <polygon class="st6" points="29.51 13.33 29.51 19.5 25.51 19.5 25.51 18.62 22.51 18.62 22.51 12.5 27.49 12.5 27.49 13.33 29.51 13.33"/>
      <rect class="st10" x="34.01" y="14.99" width="1" height="1"/>
      <rect class="st10" x="33.01" y="16" width="1" height="1"/>
      <rect class="st10" x="24.01" y="13.99" width="1" height="1"/>
      <rect class="st10" x="23.02" y="15" width="1" height="1"/>
      <polygon class="st9" points="39.36 18.48 39.36 19 39.51 19 39.51 20.99 39.36 20.99 39.36 21.09 38.01 21.09 38.01 20.99 32.9 20.99 32.9 19 38.01 19 38.01 17.97 39.01 17.97 39.01 17 40.15 17 40.15 18.48 39.36 18.48"/>
      <polygon class="st9" points="30 16.01 30 19.1 29.04 19.1 29.04 19.23 25.6 19.23 25.6 18.22 22.86 18.22 22.86 17 25.96 17 25.96 18.01 28.01 18.01 28.01 16.01 30 16.01"/>
      <path class="st5" d="M40,14.98v-.99h-2v-.99h-6v4.02h-1.01v-2.03h-.99v-1.99h-1.99v-1h-6v7h2.98v.99h5.01v-1.99h2v3h.99s2.02-.01,2.02-.01v1.01h5v-3h.99v-4.02h-1ZM30,17.02h-.99v1.98h-3.05v-.99h-2.94v-5.02h3.97v1h2.02v2.02h.99v1.01ZM39.99,17.97h-.98v3.02h-3.02v-1h-3v-6h4.03v.99h1.99v1.02h.98v1.97Z"/>
    </g>
  </g>
</svg>