<?xml version="1.0" encoding="UTF-8"?>
<svg xmlns="http://www.w3.org/2000/svg" viewBox="0 0 48 56.01">
  <defs>
    <style>
      .cls-1 {
        fill: #452628;
      }

      .cls-2 {
        fill: #fcf8dc;
      }

      .cls-3 {
        fill: #e8879e;
      }

      .cls-4 {
        fill: #6f5456;
      }

      .cls-5 {
        fill: #f7c852;
      }

      .cls-6 {
        fill: #a8817f;
      }
    </style>
  </defs>
  <g id="_Слой_4" data-name="Слой 4">
    <rect class="cls-6" x="35.74" y="10.01" width="2.25" height="1"/>
    <polygon class="cls-6" points="44.3 23.01 44.3 24.99 43 24.99 43 29 40.99 29 40.99 29.46 41.06 29.46 41.06 31 38.99 31 38.99 31.71 40.99 31.71 40.99 43.67 40.49 43.67 40.49 44.52 38.99 44.52 38.99 45.33 39.99 45.33 39.99 51.97 35.49 51.97 35.49 49.66 34.51 49.66 34.51 46.27 30.5 46.27 30.5 47.69 28 47.69 28 48.51 27 48.51 27 49.51 25.66 49.51 25.66 51.01 24.85 51.01 24.85 51.51 23.23 51.51 23.23 52.35 22.44 52.35 22.44 53.51 21.2 53.51 21.2 54.51 16.5 54.51 16.5 52.9 15.5 52.9 15.5 49.92 16.21 49.92 16.21 47.8 16.5 47.8 16.5 39.51 16.99 39.51 16.99 35.75 15.23 35.75 15.23 36.56 14.47 36.56 14.47 37.29 10.81 37.29 10.81 36.56 8.5 36.56 8.5 35 7.5 35 7.5 32.01 4 32.01 4 32 3 32 3 27.02 2 27.02 2 25.01 3 25.01 3 24.02 4 24.02 4 23.02 7.9 23.02 7.9 22.01 8.99 22.01 8.99 21 11 21 11 20.01 12 20.01 12 15 11 15 11 14.02 10.06 14.02 10.06 13.03 4 13.03 4 11.02 11 11.02 11 11.01 17.27 11.01 17.27 9.52 21.99 9.52 21.99 8.02 23.02 8.02 23.02 .99 25 .99 25 3.01 25.98 3.01 25.98 5.92 27.04 5.92 27.04 11.24 25 11.24 25 13.41 23.53 13.41 23.53 15 35.19 15 35.19 11.01 38.99 11.01 38.99 13 40 13 40 20 38.99 20 38.99 22.01 38.01 22.01 38.01 22.98 36.98 22.98 36.98 25.01 37.99 25.01 37.99 26.01 38.99 26.01 38.99 29.46 40 29.46 40 28.35 40.99 28.35 40.99 25.01 42 25.01 42 23.01 44.3 23.01"/>
  </g>
  <g id="_Слой_3" data-name="Слой 3">
    <polygon class="cls-2" points="18 24.02 18 28.01 15 28.01 15 26.01 17 26.01 17 24.02 18 24.02"/>
    <polygon class="cls-4" points="10 23.02 10 24.01 7 24.01 7 22.02 7.99 22.02 7.99 23.02 10 23.02"/>
    <rect class="cls-4" x="18" y="28.01" width="2" height="1"/>
    <rect class="cls-4" x="16" y="27.01" width="2" height="1"/>
    <rect class="cls-4" x="18" y="23.01" width="1" height="1"/>
    <polygon class="cls-4" points="19 27.01 18 27.01 18 26.01 19 26.01 19 24.01 20 24.01 20 26.02 19 26.02 19 27.01"/>
    <polygon class="cls-4" points="25 51.02 25 52.01 24 52.01 24 53.01 23 53.01 23 54.01 22.01 54.01 22.01 55.01 21 55.01 21 56.01 16 56.01 16 54.02 14 54.02 14 52.01 15 52.01 15 49.01 16 49.01 16 38.99 17 38.99 17 36.02 16.01 36.02 16.01 37.02 15.03 37.02 15.03 38.01 10 38.01 10 37.01 8 37.01 8 35 7 35 7 27.01 7.99 27.01 7.99 28.02 9 28.02 9 29.02 10 29.02 10 28.01 11 28.01 11 27 11.99 27 11.99 28.01 12 28.01 12 30.01 13 30.01 13 28.99 14 28.99 14 28.01 16 28.01 16 29.01 15 29.01 15 30.01 14 30.01 14 33 13 33 13 31.01 9.99 31.01 9.99 32 9 32 9 33.03 7.99 33.03 7.99 34.01 8.99 34.01 8.99 36.01 11 36.01 11 37.01 14.01 37.01 14.01 36.02 14.99 36.02 14.99 35 17 35 17 34.02 18 34.02 18 40.01 16.99 40.01 16.99 50.01 16 50.01 16 51.01 17 51.01 17 53.01 18 53.01 18 54.01 21 54.01 21 53.01 22.01 53.01 22.01 52 23 52 23 51.02 25 51.02"/>
    <rect class="cls-4" x="7.99" y="31.49" width=".01" height=".51"/>
    <rect class="cls-4" x="7.99" y="30.01" width=".01" height="1"/>
    <polygon class="cls-5" points="4 40.01 4 41.01 2 41.01 2 44.01 1.01 44.01 1.01 41.01 0 41.01 0 40.01 1.01 40.01 1.01 37.02 2 37.02 2 40.01 4 40.01"/>
    <rect class="cls-4" x="7.99" y="30.01" width=".01" height="1"/>
    <rect class="cls-4" x="7.99" y="31.49" width=".01" height=".51"/>
    <polygon class="cls-4" points="14 21.01 14 24.01 13 24.01 13 22.01 11 22.01 11 21.01 14 21.01"/>
    <polygon class="cls-4" points="19.99 15 19.99 15.99 18 15.99 18 15 15 15 15 14 19 14 19 15 19.99 15"/>
    <rect class="cls-4" x="14" y="15" width="1" height=".99"/>
    <polygon class="cls-4" points="19 18 19 20.01 14 20.01 14 19.01 18 19.01 18 18 19 18"/>
    <polygon class="cls-1" points="31 14.02 31 16.01 30 16.01 30 21 27.04 21 27.04 23 25.98 23 25.98 23.99 24.01 23.99 24.01 22.01 25.98 22.01 25.98 20.01 23.95 20.01 23.95 19.01 25 19.01 25 18 23.02 18 23.02 17.01 24.01 17.01 24.01 16.01 23.02 16.01 23.02 14 21 14 21 11.02 19.99 11.02 19.99 10.02 18 10.02 18 11.02 16.01 11.02 16.01 10.02 14 10.02 14 7.03 15 7.03 15 9.02 21.99 9.02 21.99 10.02 25 10.02 25 9.02 28 9.02 28 12.02 29 12.02 29 13.01 30 13.01 30 14.02 31 14.02"/>
    <rect class="cls-4" x="27" y="49.01" width=".01" height=".01"/>
    <rect class="cls-4" x="27" y="49.01" width=".01" height=".01"/>
    <rect class="cls-4" x="30" y="46.74" width=".21" height=".27"/>
    <rect class="cls-4" x="30" y="46.74" width=".21" height=".27"/>
    <polygon class="cls-4" points="41.99 35 41.99 42.03 40.99 42.03 40.99 45.04 39.99 45.04 39.99 46 37.99 46 37.99 47.01 35 47.01 35 48.01 34.99 48.01 34.99 49.02 35.99 49.02 35.99 51.04 39.99 51.04 39.99 55.02 38.99 55.02 38.99 54 37.01 54 37.01 55.02 34.99 55.02 34.99 50.01 34 50.01 34 48.01 33 48.01 33 47.01 31 47.01 31 48.01 29.01 48.01 29.01 49.02 27.01 49.02 27.01 49.01 27 49.01 27 48.01 28 48.01 28 47.01 30.21 47.01 30.21 46.74 30 46.74 30 46 31 46 31 45.02 32 45.02 32 44.01 33 44.01 33 42.03 34 42.03 34 45.02 33 45.02 33 46 36.99 46 36.99 45.01 38.99 45.01 38.99 44.02 39.99 44.02 39.99 41.02 40.99 41.02 40.99 35 41.99 35"/>
    <polygon class="cls-4" points="27.01 49.02 27.01 50.01 26 50.01 26 51.02 25 51.02 25 49.01 27 49.01 27 49.02 27.01 49.02"/>
    <rect class="cls-4" x="34" y="41.01" width="1.02" height="1.02"/>
    <rect class="cls-4" x="33.5" y="33.5" width="2" height="1" transform="translate(68.5 -.5) rotate(90)"/>
    <rect class="cls-4" x="39.99" y="41.01" width="1" height=".01"/>
    <rect class="cls-4" x="34.5" y="31.5" width="2" height="1" transform="translate(67.49 -3.5) rotate(90)"/>
    <rect class="cls-4" x="35.99" y="30" width="2" height="1"/>
    <rect class="cls-4" x="37.99" y="29.01" width="2" height="1"/>
    <rect class="cls-4" x="39.49" y="27.5" width="2" height="1" transform="translate(12.49 68.49) rotate(-90)"/>
    <rect class="cls-4" x="35" y="16.01" width=".99" height="2"/>
    <polygon class="cls-4" points="36.97 9.02 36.97 11.02 35.99 11.02 35.99 15.02 32 15.02 32 17.01 31 17.01 31 20.01 30 20.01 30 16.01 31 16.01 31 14.02 35 14.02 35 13.01 31 13.01 31 11.01 32.98 11.01 32.98 10.01 31.98 10.01 31.98 9.02 34 9.02 34 8.02 35.36 8.02 35.36 8.03 35.99 8.03 35.99 9.02 36.97 9.02"/>
    <polygon class="cls-5" points="41 3.01 41 4.01 40 4.01 40 7.02 39 7.02 39 4.01 38.01 4.01 38.01 3.01 39 3.01 39 0 40 0 40 3.01 41 3.01"/>
    <polygon class="cls-4" points="34 35 34 40.01 32 40.01 32 39.01 33 39.01 33 35 34 35"/>
    <polygon class="cls-4" points="35.99 34 36.99 34 36.99 36 36 36 36 41.01 35.02 41.01 35.02 36 35.99 36 35.99 34"/>
    <rect class="cls-4" x="40.99" y="29" width="1" height="2"/>
    <polygon class="cls-4" points="38.99 32 38.99 33 37.99 33 37.99 34 36.99 34 36.99 32 38.99 32"/>
    <rect class="cls-4" x="38.99" y="31" width="2" height="1"/>
    <polygon class="cls-1" points="48 20 48 24 46.99 24 46.99 25.01 43 25.01 43 22.02 44.01 22.02 44.01 21.02 45 21.02 45 20 46.01 20 46.01 21.02 47.01 21.02 47.01 20 48 20"/>
    <polygon class="cls-3" points="7.04 32 7.04 33 5.01 33 5.01 32.01 3 32.01 3 29.01 1.99 29.01 1.99 26.01 4 26.01 4 29.01 5.01 29.01 5.01 30.01 5.99 30.01 5.99 32 7.04 32"/>
  </g>
</svg>