<?xml version="1.0" encoding="UTF-8"?>
<svg xmlns="http://www.w3.org/2000/svg" viewBox="0 0 51 55.01">
  <defs>
    <style>
      .cls-1 {
        fill: #6a5758;
      }

      .cls-2 {
        fill: #402a2c;
      }

      .cls-3 {
        fill: #fff;
      }

      .cls-4 {
        fill: #424348;
      }

      .cls-5 {
        fill: #d789a0;
      }

      .cls-6 {
        fill: #6f6f72;
      }

      .cls-7 {
        fill: #64656d;
      }

      .cls-8 {
        fill: #adadbb;
      }

      .cls-9 {
        fill: #af7649;
      }

      .cls-10 {
        fill: #f5bf63;
      }

      .cls-11 {
        fill: #fcf9de;
      }

      .cls-12 {
        fill: #ad6831;
      }

      .cls-13 {
        fill: #a28481;
      }

      .cls-14 {
        fill: #700d2e;
      }
    </style>
  </defs>
  <g id="_Слой_6" data-name="Слой 6">
    <polygon class="cls-13" points="46.01 19 46.01 30 45 30 45 32 44 32 44 40.99 43 40.99 43 42.02 41.98 42.02 41.98 48.99 32 48.99 32 50 30 50 30 51.01 27.01 51.01 27.01 52 23.99 52 23.99 53.02 20 53.02 20 47 21.01 47 21.01 44 16 44 16 43.99 14.99 43.99 14.99 44.99 12 44.99 12 45.98 6 45.98 6 41 8.02 41 8.02 39.98 9.99 39.98 9.99 39.01 11.01 39.01 11.01 38 13.01 38 13.01 36.31 14 36.31 14 33.98 10.82 33.98 10.82 29.02 14 29.02 14 27.99 16 27.99 16 27 10 27 10 17 16 17 16 13 17 13 17 11.03 18.99 11.03 18.99 7.83 27.73 7.83 27.73 5.01 35 5.01 35 .98 35.98 .98 35.98 0 38.03 0 38.03 13 39.01 13 39.01 17.13 39 17.13 39 20 40 20 40 27 41 27 41 38 41.98 38 41.98 39.99 42.99 39.99 42.99 30.99 44 30.99 44 29 45.01 29 45.01 19 46.01 19"/>
    <rect class="cls-13" x="17.99" y=".98" width="3.12" height="1.89"/>
  </g>
  <g id="_Слой_3" data-name="Слой 3">
    <rect class="cls-4" x="1.67" y="26" width="2.83" height="3.99"/>
    <polygon class="cls-12" points="12.99 33 12.99 33.99 12 33.99 12 34.99 11 34.99 11 33.99 10 33.99 10 33.01 8.8 33.01 8.8 29.99 4.96 29.99 4.96 27.99 9.58 27.99 9.58 29.82 11 29.82 11 32 12 32 12 33 12.99 33"/>
    <polygon class="cls-3" points="20 13 20 15 17.7 15 17.7 14.12 17 14.12 17 12 19 12 19 13 20 13"/>
    <rect class="cls-3" x="26.59" y="12" width="2.41" height="3"/>
    <rect class="cls-7" x="18.52" y="3" width="5.49" height="4.44"/>
    <polygon class="cls-7" points="48 45 48 50 36.01 50 36.01 45.95 36.63 45.95 36.63 45 48 45"/>
  </g>
  <g id="_Слой_4" data-name="Слой 4">
    <polygon class="cls-5" points="15 22 15 24 14 24 14 25.01 13 25.01 13 27 5 27 5 21 6 21 6 19 7 19 7 18 8 18 8 17 12.01 17 12.01 18 13 18 13 20 14 20 14 22 15 22"/>
    <polygon class="cls-11" points="24 21 24 24 23.1 24 23.1 25.25 21 25.25 21 23 23 23 23 21 24 21"/>
    <polygon points="18 12 18 15 16 15 16 13 17 13 17 12 18 12"/>
    <polygon points="27.01 12 27.01 15 24.99 15 24.99 13 26 13 26 12 27.01 12"/>
    <rect class="cls-8" x="17.96" y="3" width="5.05" height="1"/>
    <rect class="cls-8" x="35" y="46" width="1" height="1"/>
    <polygon class="cls-8" points="38 44 38 45 37 45 37 46 36 46 36 44 38 44"/>
    <rect class="cls-8" x="39" y="45" width="1" height="1"/>
    <rect class="cls-8" x="40" y="43" width="5.1" height="2"/>
    <rect class="cls-8" x="39" y="47" width="3" height="1"/>
    <rect class="cls-8" x="42" y="48" width="1.01" height="1.01"/>
    <rect class="cls-8" x="44" y="47" width="1" height="1"/>
    <rect class="cls-8" x="45" y="46" width="1.01" height="1"/>
    <polygon class="cls-8" points="49 46 49 48.35 48 48.35 48 48 46.66 48 46.66 47 48 47 48 46 49 46"/>
    <rect class="cls-8" x="49" y="47" width=".01" height="1"/>
  </g>
  <g id="_Слой_2" data-name="Слой 2">
    <polygon class="cls-1" points="12.01 22 12.01 24 10 24 10 20 11 20 11 22 12.01 22"/>
    <polygon class="cls-1" points="8.01 21 8.01 24 6 24 6 22 7 22 7 21 8.01 21"/>
    <polygon class="cls-1" points="25.01 24 25.01 25.01 24 25.01 24 26 20 26 20 27 14 27 14 25.99 18.99 25.99 18.99 25 23 25 23 24 25.01 24"/>
    <polygon class="cls-1" points="18.02 18.02 18.02 20.03 17.01 20.03 17.01 19.02 16.01 19.02 16.01 18.02 15 18.02 15 17.01 13.01 17.01 13.01 16.01 16 16.01 16 17.01 17.01 17.01 17.01 18.02 18.02 18.02"/>
    <rect class="cls-1" x="17.01" y="18.01" width="1.01" height=".01"/>
    <rect class="cls-1" x="21" y="17.01" width=".01" height="1"/>
    <polygon class="cls-1" points="21 17.01 21 19.02 20 19.02 20 18.01 18.99 18.01 18.99 17.01 21 17.01"/>
    <rect class="cls-1" x="21.01" y="19.02" width="1" height="1.01"/>
    <rect class="cls-1" x="38.01" y="26" width=".01" height="1"/>
    <rect class="cls-1" x="37.01" y="25.99" width="1" height=".01"/>
    <rect class="cls-1" x="32" y="32.99" width="1" height="4"/>
    <rect class="cls-1" x="33.99" y="24.99" width="2.01" height="1"/>
    <polygon class="cls-1" points="39.02 28.01 39.02 40.99 36.99 40.99 36.99 39 35.02 39 35.02 40.01 34.01 40.01 34.01 40.99 33 40.99 33 36.99 36.99 36.99 36.99 36.01 38.01 36.01 38.01 29.02 37.01 29.02 37.01 27 36 27 36 26 38.01 26 38.01 28.01 39.02 28.01"/>
    <rect class="cls-1" x="30.99" y="31.99" width="1.01" height="1"/>
    <polygon class="cls-1" points="37.01 2.97 37.01 10 36 10 36 7.99 35 7.99 35 7 33.99 7 33.99 6 35 6 35 5.01 36 5.01 36 2.97 37.01 2.97"/>
    <rect class="cls-1" x="17.99" y="10.02" width="3.02" height="1.01"/>
    <rect class="cls-1" x="14.99" y="34" width=".02" height=".97"/>
    <rect class="cls-1" x="14.99" y="34" width=".02" height="1.98"/>
    <rect class="cls-1" x="13.01" y="34.97" width=".99" height=".02"/>
    <rect class="cls-1" x="14.99" y="34" width=".02" height="1.01"/>
    <polygon class="cls-1" points="14 34 14.99 34 14.99 35.98 14 35.98 14 38 13 38 13 34.99 14 34.99 14 34"/>
    <rect class="cls-1" x="17" y="30.01" width="1.01" height="1.98"/>
    <polygon class="cls-1" points="15.99 32 17 32 17 33.98 16.97 33.98 16.97 34 15.99 34 15.99 34.97 15.98 34.97 15.98 35.01 15.01 35.01 15.01 34 14.99 34 14.99 32.99 15.99 32.99 15.99 32"/>
    <rect class="cls-1" x="10.99" y="38" width="1.01" height="1.01"/>
    <rect class="cls-1" x="2.01" y="44.96" width="3.99" height=".06"/>
    <polygon class="cls-1" points="9.99 45.02 9.99 46.99 6 46.99 6 44.96 2.01 44.96 2.01 43.01 4 43.01 4 42 8 42 8 44.01 9 44.01 9 45.02 9.99 45.02"/>
    <polygon class="cls-1" points="23.01 51.98 23.01 53.01 21.01 53.01 21.01 54 17.99 54 17.99 51.01 16 51.01 16 49 17 49 17 48 20 48 20 50 21.01 50 21.01 51 22 51 22 51.98 23.01 51.98"/>
    <polygon class="cls-1" points="10 31 10 30.01 9.02 30.01 9.02 31.01 10.01 31.01 10.01 32.01 9.02 32.01 9.02 33.01 7.01 33.01 7.01 31.99 6 31.99 6 29.99 7.99 29.99 7.99 30.01 8.01 30.01 8.01 27.99 11.01 27.99 11.01 31 10 31"/>
    <rect class="cls-14" x="25" y="1.99" width="1.01" height=".01"/>
    <polygon class="cls-2" points="34 4 34 5.01 33.01 5.01 33.01 6 28 6 28 4.99 27.01 4.99 27.01 2.99 26.01 2.99 26.01 1.99 25 1.99 25 0 26.01 0 26.01 1 27.01 1 27.01 1.99 28.99 1.99 28.99 3.02 29.98 3.02 29.98 1.99 30.98 1.99 30.98 4 34 4"/>
    <polygon class="cls-2" points="51 15.99 51 17 50.01 17 50.01 18.99 49.01 18.99 49.01 20 46.01 20 46.01 15.99 47 15.99 47 15.01 50.01 15.01 50.01 15.99 51 15.99"/>
    <rect class="cls-14" x="4" y="29.99" width="1" height=".01"/>
    <polygon class="cls-6" points="7.01 26 7.01 28 6 28 6 29.01 5 29.01 5 29.99 4 29.99 4 30 3.99 30 3.99 31.01 2 31.01 2 30 3 30 3 29 4 29 4 27.01 2.99 27.01 2.99 26 4 26 4 25.01 6 25.01 6 26 7.01 26"/>
    <rect class="cls-14" x="3.99" y="30" width=".01" height="1"/>
    <polygon class="cls-6" points="3 28 3 29 2 29 2 30.01 1 30.01 1 29 0 29 0 27 1 27 1 26 2 26 2 28 3 28"/>
    <polygon class="cls-9" points="36 10 36 14 33 14 33 13 32 13 32 12 30 12 30 11 26 11 26 10.02 23.98 10.02 23.98 9 20 9 20 8 16 8 16 7 14 7 14 5.78 17.2 5.78 17.2 5.93 21.48 5.93 21.48 7.2 25.49 7.2 25.49 8.23 29.47 8.23 29.47 9.21 31.49 9.21 31.49 10 36 10"/>
    <polygon class="cls-9" points="48 49.99 48 53 46.99 53 46.99 54 46.01 54 46.01 55.01 42 55.01 42 54 40.01 54 40.01 53 36 53 36 49.99 48 49.99"/>
  </g>
  <g id="_Слой_5" data-name="Слой 5">
    <polygon class="cls-10" points="35 9 35 13 33.99 13 33.99 12 33 12 33 11 31 11 31 10 28 10 28 9 23.99 9 23.99 8 21 8 21 7.01 16.99 7.01 16.99 6.01 14 6.01 14 2 23 2 23 3 19 3 19 5 22 5 22 7.01 24 7.01 24 6 23 6 23 5 24 5 24 4 26 4 26 5 28 5 28 6 30.01 6 30.01 7 32 7 32 8 34 8 34 9 35 9"/>
    <rect class="cls-10" x="49" y="48.99" width=".01" height=".01"/>
    <rect class="cls-10" x="49" y="48.99" width=".01" height=".01"/>
    <rect class="cls-10" x="49" y="48.99" width=".01" height=".01"/>
    <rect class="cls-10" x="36" y="46" width="1" height="1"/>
    <path class="cls-10" d="M49,47.01v.99h-2v-.99h-1v1.98h-2v1.01h-2v-1h-3v-1h-3v-1h-5v1h1v1h3v1h3v1.01h2.99v.99h2.01v-.99h5v-1.01h1.01v-.99h.99v-2h-1ZM49.01,49h-.01s.01-.01.01-.01h0Z"/>
    <rect class="cls-10" x="42" y="45" width="1.01" height="1"/>
    <rect class="cls-10" x="40" y="45" width="1.01" height="1"/>
    <rect class="cls-10" x="38" y="45" width="1" height="1"/>
    <rect class="cls-10" x="40" y="43" width="1.01" height="1.01"/>
    <polygon class="cls-10" points="48 45 48 46 44 46 44 45 45 45 45 44 43.01 44 43.01 43 47 43 47 45 48 45"/>
  </g>
</svg>