<?xml version="1.0" encoding="UTF-8"?>
<svg id="_Слой_3" data-name="Слой 3" xmlns="http://www.w3.org/2000/svg" viewBox="0 0 48.2 54.15">
  <defs>
    <style>
      .cls-1 {
        fill: #dd8ca4;
      }

      .cls-2 {
        fill: #3e282a;
      }

      .cls-3 {
        fill: #fff;
      }

      .cls-4 {
        fill: #fffbdd;
      }

      .cls-5 {
        fill: #685557;
      }

      .cls-6 {
        fill: #a18380;
      }
    </style>
  </defs>
  <g id="_Слой_3-2" data-name=" Слой 3">
    <polygon class="cls-6" points="43.28 25.64 43.28 26.58 38.54 26.58 38.54 27.52 34.78 27.52 34.78 24.7 33.84 24.7 33.84 22.82 32.94 22.82 32.94 23.76 32 23.76 32 28.46 31.02 28.46 31.02 29.4 36.15 29.4 36.15 31.24 35.68 31.24 35.68 32.22 32.9 32.22 32.9 33.16 27.26 33.16 27.26 32.22 25.38 32.22 25.38 33.16 22.56 33.16 22.56 34.1 21.62 34.1 21.62 35.04 26.32 35.04 26.32 35.98 24.44 35.98 24.44 36.92 19.74 36.92 19.74 38.8 18.76 38.8 18.76 39.74 14.1 39.74 14.1 38.8 13.16 38.8 13.16 36.92 12.22 36.92 12.22 35.04 13.16 35.04 13.16 33.7 13.4 33.7 13.4 33.16 14.1 33.16 14.1 32.22 15.04 32.22 15.04 29.4 14.1 29.4 14.1 28.46 12.38 28.46 12.38 24.7 13.16 24.7 13.16 22.82 12.22 22.82 12.22 21.88 11.28 21.88 11.28 20.94 6.58 20.94 6.58 21.64 1.88 21.64 1.88 14.36 5.64 14.36 5.64 12.36 8.46 12.36 8.46 9.66 9.52 9.66 9.52 7.78 10.34 7.78 10.34 6.84 11.28 6.84 11.28 5.9 12.06 5.9 12.06 4.96 12.22 4.96 12.22 3.07 14.22 3.07 14.22 2.13 15.04 2.13 15.04 1.19 16.92 1.19 16.92 .25 20.72 .25 20.72 1.19 18.8 1.19 18.8 2.13 28.2 2.13 28.2 3.07 26.4 3.07 26.4 4.01 24.44 4.01 24.44 7.42 23.5 7.42 23.5 7.78 24.32 7.78 24.32 9.66 24.44 9.66 24.44 14.36 25.38 14.36 25.38 16.24 29.18 16.24 29.18 17.18 28.2 17.18 28.2 18.12 32.94 18.12 32.94 19.06 31.06 19.06 31.06 20.03 30.08 20.03 30.08 22.82 31.02 22.82 31.02 21.88 31.96 21.88 31.96 20.94 38.58 20.94 38.58 21.88 35.72 21.88 35.72 22.82 34.78 22.82 34.78 23.76 35.76 23.76 35.76 24.7 36.66 24.7 36.66 25.64 35.72 25.64 35.72 26.58 37.6 26.58 37.6 25.64 38.54 25.64 38.54 24.7 40.42 24.7 40.42 23.76 42.3 23.76 42.3 24.7 41.36 24.7 41.36 25.64 43.28 25.64"/>
  </g>
  <g id="_Слой_2" data-name=" Слой 2">
    <rect class="cls-5" x="8.46" y="14.36" width=".94" height=".94"/>
    <polygon class="cls-5" points="8.46 11.54 8.46 14.36 7.52 14.36 7.52 12.48 6.58 12.48 6.58 13.42 5.64 13.42 5.64 11.54 8.46 11.54"/>
    <rect class="cls-5" x="4.7" y="13.42" width=".94" height="1.88"/>
    <rect class="cls-5" x="8.46" y="9.66" width=".94" height="1.88"/>
    <rect class="cls-5" x="9.4" y="7.78" width=".94" height="1.88"/>
    <rect class="cls-5" x="10.34" y="6.84" width=".94" height=".94"/>
    <rect class="cls-5" x="11.28" y="5.9" width="3.76" height=".94"/>
    <rect class="cls-5" x="15.04" y="6.84" width=".94" height=".94"/>
    <rect class="cls-5" x="15.98" y="7.78" width=".94" height=".94"/>
    <rect class="cls-5" x="1.88" y="20.94" width="4.7" height=".94"/>
    <polygon class="cls-5" points="10.34 19.06 10.34 20.94 6.58 20.94 6.58 20 9.4 20 9.4 19.06 10.34 19.06"/>
    <rect class="cls-5" x="10.34" y="17.18" width=".94" height="1.88"/>
    <rect class="cls-5" x="11.28" y="16.24" width="3.76" height=".94"/>
    <polygon class="cls-5" points="16.92 14.36 16.92 16.24 15.04 16.24 15.04 15.3 15.98 15.3 15.98 14.36 16.92 14.36"/>
    <rect class="cls-5" x="11.28" y="20.94" width=".94" height=".94"/>
    <rect class="cls-5" x="12.22" y="21.88" width=".94" height=".94"/>
    <rect class="cls-5" x="19.74" y="20" width="1.88" height=".94"/>
    <rect class="cls-5" x="15.98" y="20" width=".94" height="1.88"/>
    <rect class="cls-5" x="15.04" y="21.88" width=".94" height="2.82"/>
    <rect class="cls-5" x="16.92" y="19.06" width="2.82" height=".98"/>
    <polygon class="cls-5" points="17.86 27.52 17.86 28.46 12.22 28.46 12.22 27.52 11.28 27.52 11.28 26.58 10.34 26.58 10.34 24.7 15.04 24.7 15.04 25.64 14.1 25.64 14.1 26.58 15.04 26.58 15.04 27.52 17.86 27.52"/>
    <rect class="cls-5" x="17.86" y="26.58" width="2.82" height=".94"/>
    <rect class="cls-5" x="20.68" y="24.7" width=".94" height="1.88"/>
    <rect class="cls-5" x="26.32" y="17.18" width=".94" height="1.88"/>
    <polygon class="cls-5" points="26.32 15.3 26.32 17.18 25.38 17.18 25.38 16.24 24.44 16.24 24.44 14.36 25.42 14.36 25.42 15.3 26.32 15.3"/>
    <rect class="cls-5" x="14.1" y="32.22" width=".94" height=".94"/>
    <rect class="cls-5" x="13.16" y="33.16" width=".94" height="1.88"/>
    <rect class="cls-5" x="12.22" y="35.04" width=".94" height="1.88"/>
    <rect class="cls-5" x="13.16" y="36.92" width=".94" height="1.88"/>
    <rect class="cls-5" x="14.1" y="38.8" width=".94" height=".94"/>
    <polygon class="cls-5" points="18.8 38.8 18.8 39.74 20.68 39.74 20.68 40.68 19.74 40.68 19.74 41.65 16.92 41.65 16.92 40.68 15.98 40.68 15.98 38.8 16.92 38.8 16.92 37.86 20.68 37.86 20.68 38.8 18.8 38.8"/>
    <polygon class="cls-5" points="20.68 33.16 22.56 33.16 22.56 34.1 21.62 34.1 21.62 35.04 20.68 35.04 20.68 33.16"/>
    <rect class="cls-5" x="22.56" y="32.22" width="2.82" height=".94"/>
    <polygon class="cls-5" points="31.02 28.46 31.02 30.34 30.12 30.34 30.12 31.31 29.14 31.31 29.14 32.22 25.38 32.22 25.38 31.28 28.2 31.28 28.2 30.34 29.14 30.34 29.14 29.4 30.08 29.4 30.08 28.46 31.02 28.46"/>
    <rect class="cls-5" x="31.02" y="27.52" width=".98" height=".94"/>
    <polygon class="cls-5" points="39.52 29.4 39.52 30.34 36.66 30.34 36.66 31.28 35.72 31.28 35.72 32.22 33.84 32.22 33.84 30.34 34.78 30.34 34.78 29.4 39.52 29.4"/>
    <rect class="cls-2" x="11.28" y="4.92" width=".94" height=".94"/>
    <polygon class="cls-2" points="15.98 3.07 15.98 4.01 16.92 4.01 16.92 4.96 15.98 4.96 15.98 4.05 13.16 4.05 13.16 4.96 12.22 4.96 12.22 3.07 14.1 3.07 14.1 2.13 15.04 2.13 15.04 1.19 16.92 1.19 16.92 2.13 21.62 2.13 21.62 3.07 15.98 3.07"/>
    <rect class="cls-2" x="28.2" y="6.84" width=".94" height=".94"/>
    <polygon class="cls-2" points="32.9 4.01 32.9 4.96 31.96 4.96 31.96 5.9 28.2 5.9 28.2 6.84 27.26 6.84 27.26 7.78 26.32 7.78 26.32 9.66 29.14 9.66 29.14 10.6 28.2 10.6 28.2 11.54 26.32 11.54 26.32 12.48 25.38 12.48 25.38 13.42 24.44 13.42 24.44 14.39 23.5 14.39 23.5 7.78 22.56 7.78 22.56 6.84 21.62 6.84 21.62 4.01 25.38 4.01 25.38 4.96 24.44 4.96 24.44 5.9 25.42 5.9 25.42 6.84 26.32 6.84 26.32 4.96 31.02 4.96 31.02 4.01 32.9 4.01"/>
    <polygon class="cls-2" points="47.98 24.7 47.98 25.64 45.12 25.64 45.12 26.58 43.24 26.58 43.24 25.64 44.18 25.64 44.18 23.76 46.06 23.76 46.06 24.7 47.98 24.7"/>
    <polygon class="cls-3" points="15.98 7.78 15.98 9.66 14.02 9.66 14.02 8.72 15.04 8.72 15.04 7.78 15.98 7.78"/>
    <polygon class="cls-1" points="2.82 14.36 2.82 18.12 1.88 18.12 1.88 20.94 .94 20.94 .94 20 0 20 0 17.18 .94 17.18 .94 14.36 2.82 14.36"/>
    <polygon class="cls-1" points="18.8 16.24 18.8 17.18 16.92 17.18 16.92 18.12 14.1 18.12 14.1 17.18 15.04 17.18 15.04 16.24 16.92 16.24 16.92 15.3 17.86 15.3 17.86 16.24 18.8 16.24"/>
    <rect x="12.26" y="8.72" width="1.88" height=".94"/>
    <polygon class="cls-4" points="15.04 14.36 15.04 16.24 13.16 16.24 13.16 15.3 14.1 15.3 14.1 14.36 15.04 14.36"/>
  </g>
</svg>