<?xml version="1.0" encoding="UTF-8"?>
<svg xmlns="http://www.w3.org/2000/svg" viewBox="0 0 10.56 10.06">
  <defs>
    <style>
      .cls-1 {
        fill: #c61f17;
      }

      .cls-2 {
        fill: #402a2c;
      }

      .cls-3 {
        fill: #fff;
      }

      .cls-4 {
        fill: #9e817e;
      }

      .cls-5 {
        fill: #d2879d;
      }

      .cls-6 {
        fill: #685557;
      }

      .cls-7 {
        fill: #4d393a;
      }

      .cls-8 {
        fill: #fcf9dd;
      }

      .cls-9 {
        fill: #000205;
      }
    </style>
  </defs>
  <g id="_Слой_5" data-name="Слой 5">
    <rect class="cls-1" x="9.11" y="5.76" width=".05" height=".01"/>
    <rect class="cls-1" x="9.11" y="5.76" width=".05" height=".01"/>
    <polygon class="cls-4" points="10.56 5.76 10.56 6.49 10.33 6.49 10.33 6.96 10.08 6.96 10.08 7.21 9.84 7.21 9.84 7.44 9.6 7.44 9.6 7.69 9.11 7.69 9.11 7.94 8.4 7.94 8.4 9.13 8.17 9.13 8.17 9.84 7.91 9.84 7.91 10.06 3.13 10.06 3.13 9.84 2.88 9.84 2.88 9.37 2.16 9.37 2.16 9.13 1.68 9.13 1.68 8.64 1.44 8.64 1.44 7.44 1.68 7.44 1.68 7.2 2.16 7.2 2.16 6.96 .72 6.96 .72 6.72 .49 6.72 .49 6.48 .23 6.48 .23 6.25 0 6.25 0 6 .23 6 .23 5.52 .49 5.52 .49 4.81 .72 4.81 .72 4.57 1.21 4.57 1.21 4.33 2.4 4.33 2.4 4.09 2.64 4.09 2.64 3.84 2.88 3.84 2.88 3.6 3.36 3.6 3.36 3.11 3.14 3.11 3.14 2.88 3.36 2.88 3.36 1.92 3.6 1.92 3.6 1.2 3.36 1.2 3.36 .49 3.85 .49 3.85 .71 4.1 .71 4.1 .95 4.35 .95 4.35 1.2 4.56 1.2 4.56 .71 4.8 .71 4.8 1.2 5.04 1.2 5.04 .47 5.28 .47 5.28 .72 5.52 .72 5.52 .96 5.76 .96 5.76 .47 6 .47 6 1.2 6.72 1.2 6.72 1.45 6.97 1.45 6.97 .72 7.2 .72 7.2 .47 7.44 .47 7.44 0 7.68 0 7.68 1.45 7.92 1.45 7.92 2.4 8.17 2.4 8.17 6.48 8.4 6.48 8.4 6.23 8.64 6.23 8.64 5.99 8.88 5.99 8.88 5.77 9.02 5.77 9.02 5.76 9.11 5.76 9.11 5.77 9.16 5.77 9.16 5.76 9.11 5.76 9.11 5.52 9.6 5.52 9.6 5.29 10.33 5.29 10.33 5.76 10.56 5.76"/>
  </g>
  <g id="_Слой_3" data-name="Слой 3">
    <rect class="cls-6" x="3.12" y="4.8" width=".24" height=".24"/>
    <rect class="cls-9" x="4.88" y="3.36" width="1" height=".55"/>
    <rect class="cls-3" x="4.8" y="3.36" width=".24" height=".72"/>
    <rect class="cls-3" x="5.76" y="3.6" width=".24" height=".48"/>
    <rect class="cls-3" x="5.3" y="3.39" width=".24" height="1.16" transform="translate(1.46 9.39) rotate(-90)"/>
    <rect class="cls-9" x="3.36" y="2.88" width=".48" height=".48" transform="translate(.48 6.72) rotate(-90)"/>
    <rect class="cls-9" x="3.24" y="2.76" width=".24" height=".48" transform="translate(.36 6.36) rotate(-90)"/>
    <rect class="cls-3" x="3.36" y="3.12" width=".24" height=".72" transform="translate(0 6.96) rotate(-90)"/>
    <polygon class="cls-5" points="2.4 5.76 2.4 6.47 1.93 6.47 1.93 6.72 .48 6.72 .48 6.47 .24 6.47 .24 6.24 0 6.24 0 6 .24 6 .24 5.53 .48 5.53 .48 4.8 .72 4.8 .72 4.56 1.44 4.56 1.44 4.8 1.68 4.8 1.68 5.04 1.93 5.04 1.93 5.53 2.17 5.53 2.17 5.76 2.4 5.76"/>
    <rect class="cls-3" x="3.12" y="3.12" width=".24" height=".48"/>
    <polygon class="cls-6" points="10.56 5.75 10.56 6.47 10.32 6.47 10.32 6.96 10.08 6.96 10.08 6.23 9.84 6.23 9.84 5.99 8.88 5.99 8.88 5.75 9.12 5.75 9.12 5.52 9.61 5.52 9.61 5.28 10.32 5.28 10.32 5.75 10.56 5.75"/>
    <rect class="cls-6" x="7.68" y="6.47" width=".72" height=".25"/>
    <rect class="cls-6" x="8.64" y="5.99" width=".24" height=".24"/>
    <rect class="cls-6" x="8.4" y="6.23" width=".24" height=".24"/>
    <polygon class="cls-6" points="9.61 6.96 10.08 6.96 10.08 7.2 9.84 7.2 9.84 7.45 9.61 7.45 9.61 7.69 9.13 7.69 9.13 7.93 7.44 7.93 7.44 7.69 9.12 7.69 9.12 7.45 9.37 7.45 9.37 7.2 9.61 7.2 9.61 6.96"/>
    <rect class="cls-6" x="2.65" y="7.69" width=".46" height=".24"/>
    <polygon class="cls-6" points="5.99 6.23 5.99 6.47 3.84 6.47 3.84 6.72 3.36 6.72 3.36 6.96 2.4 6.96 2.4 7.45 2.65 7.45 2.65 7.69 2.16 7.69 2.16 7.45 1.92 7.45 1.92 7.69 1.67 7.69 1.67 8.4 1.92 8.4 1.92 8.88 2.4 8.88 2.4 9.12 2.89 9.12 2.89 9.36 2.16 9.36 2.16 9.12 1.67 9.12 1.67 8.64 1.43 8.64 1.43 7.45 1.67 7.45 1.67 7.2 2.16 7.2 2.16 6.96 .72 6.96 .72 6.72 3.11 6.72 3.11 6.47 3.6 6.47 3.6 6.23 5.52 6.23 5.52 5.99 5.76 5.99 5.76 6.23 5.99 6.23"/>
    <polygon class="cls-6" points="4.57 8.63 4.57 8.88 4.33 8.88 4.33 9.36 4.08 9.36 4.08 9.6 2.89 9.6 2.89 9.36 3.6 9.36 3.6 8.88 3.84 8.88 3.84 8.65 3.58 8.65 3.58 8.17 3.83 8.17 3.83 8.4 4.08 8.4 4.08 8.63 4.57 8.63"/>
    <rect class="cls-6" x="3.11" y="7.93" width=".47" height=".24"/>
    <rect class="cls-6" x="2.17" y="4.32" width=".95" height=".24"/>
    <rect class="cls-6" x="2.64" y="3.84" width=".72" height=".24"/>
    <rect class="cls-6" x="3.36" y="2.64" width=".72" height=".24"/>
    <rect class="cls-6" x="5.28" y="3.36" width=".96" height=".24"/>
    <rect class="cls-6" x="5.99" y="6.47" width=".24" height=".25"/>
    <rect class="cls-6" x="4.08" y="2.88" width=".48" height=".24"/>
    <rect class="cls-6" x="3.36" y="4.09" width=".48" height=".24"/>
    <polygon class="cls-2" points="6.73 1.2 6.73 1.68 5.76 1.68 5.76 1.44 5.53 1.44 5.53 1.68 5.05 1.68 5.05 1.92 4.8 1.92 4.8 1.44 4.56 1.44 4.56 .72 4.8 .72 4.8 1.2 5.05 1.2 5.05 .48 5.29 .48 5.29 .72 5.53 .72 5.53 .96 5.76 .96 5.76 .48 6 .48 6 1.2 6.73 1.2"/>
    <polygon class="cls-7" points="7.44 1.2 7.44 2.64 6.96 2.64 6.96 1.44 7.2 1.44 7.2 1.2 7.44 1.2"/>
    <polygon class="cls-7" points="4.32 1.68 4.32 1.92 4.08 1.92 4.08 2.16 3.84 2.16 3.84 1.2 4.08 1.2 4.08 1.68 4.32 1.68"/>
    <rect class="cls-7" x="3.6" y=".96" width=".24" height=".24"/>
    <polygon class="cls-8" points="5.28 5.04 5.28 6 5.04 6 5.04 6.23 4.32 6.23 4.32 5.76 4.8 5.76 4.8 5.52 5.04 5.52 5.04 5.04 5.28 5.04"/>
    <polygon class="cls-2" points="8.16 3.84 8.16 4.33 8.4 4.33 8.4 4.81 8.16 4.81 8.16 5.28 8.4 5.28 8.4 6 7.92 6 7.92 5.77 7.68 5.77 7.68 3.6 7.92 3.6 7.92 2.4 8.16 2.4 8.16 3.12 8.4 3.12 8.4 3.84 8.16 3.84"/>
  </g>
  <g id="_Слой_4" data-name="Слой 4">
    <polygon class="cls-6" points="1.93 6 1.93 6.24 1.2 6.24 1.2 5.27 1.44 5.27 1.44 5.76 1.69 5.76 1.69 6 1.93 6"/>
    <polygon class="cls-6" points=".96 5.28 .96 6.24 .48 6.24 .48 5.76 .72 5.76 .72 5.28 .96 5.28"/>
  </g>
</svg>