<?xml version="1.0" encoding="UTF-8"?>
<svg xmlns="http://www.w3.org/2000/svg" version="1.1" viewBox="0 0 59 59">
  <!-- Generator: Adobe Illustrator 29.3.0, SVG Export Plug-In . SVG Version: 2.1.0 Build 146)  -->
  <defs>
    <style>
      .st0 {
        fill: #dd8ca4;
      }

      .st1 {
        fill: #695658;
      }

      .st2 {
        fill: #584749;
      }

      .st3 {
        fill: #a28381;
      }

      .st4 {
        fill: #402a2c;
      }

      .st5 {
        fill: #e0ac38;
      }

      .st6 {
        fill: #dd923a;
      }

      .st7 {
        fill: #030000;
      }

      .st8 {
        fill: #6f9f6e;
      }

      .st9 {
        fill: #358133;
      }

      .st10 {
        fill: #ea2437;
      }

      .st11 {
        fill: #ffffeb;
      }

      .st12 {
        fill: #f7c852;
      }
    </style>
  </defs>
  <g id="_Слой_7" data-name="Слой_7">
    <polygon class="st9" points="48.84 51.45 48.84 51.4 44.5 51.4 44.5 51.46 52.29 51.46 52.29 52.54 44.5 52.54 44.5 54.78 36.65 54.78 36.65 52 35.62 52 35.62 51.4 33.28 51.4 33.28 53.68 24.32 53.68 24.32 51.4 17.64 51.4 17.64 52.61 16.53 52.61 16.53 46.98 15.38 46.98 15.38 52.54 9.82 52.54 9.82 46.98 14.82 46.98 14.82 45.84 16.53 45.84 16.53 42.47 46.42 42.47 46.42 39.82 47.82 39.82 47.82 42.47 50.02 42.47 50.02 50.32 53.38 50.32 53.38 51.45 48.84 51.45"/>
  </g>
  <g id="_Слой_6" data-name="Слой_6">
    <polygon class="st8" points="19.94 44.7 18.81 44.7 18.81 45.84 15.41 45.84 15.41 46.98 16.53 46.98 16.53 51.4 12.03 51.4 12.03 53.68 5.34 53.68 5.34 52.54 3.1 52.54 3.1 51.4 4.22 51.4 4.22 50.27 10.92 50.27 10.92 49.22 9.79 49.22 9.79 48.12 12.03 48.12 12.03 46.98 10.91 46.98 10.91 45.84 13.16 45.84 13.16 44.7 16.53 44.7 16.53 42.47 19.94 42.47 19.94 44.7"/>
    <rect class="st8" x="24.37" y="47.95" width=".61" height=".11"/>
    <rect class="st8" x="24.37" y="47.95" width=".61" height=".11"/>
    <rect class="st8" x="52.29" y="43.58" width=".03" height="1.11"/>
    <rect class="st8" x="37.87" y="48.97" width="5.48" height="1.34"/>
    <polygon class="st8" points="36.63 51.46 43.35 51.46 43.35 52.54 46.71 52.54 46.71 53.68 34.37 53.68 34.37 52.54 29.95 52.54 29.95 51.46 31.04 51.46 31.04 50.25 36.63 50.25 36.63 51.46"/>
    <polygon class="st8" points="24.98 47.95 27.68 47.95 27.68 52.54 23.21 52.54 23.21 50.32 22.1 50.32 22.1 51.4 18.78 51.4 18.78 50.27 18.79 50.27 18.79 46.98 19.93 46.98 19.93 45.9 25.41 45.9 25.41 46.98 24.98 46.98 24.98 47.95 24.37 47.95 24.37 48.06 24.98 48.06 24.98 47.95"/>
    <polygon class="st8" points="48.94 48.1 50.02 48.1 50.02 49.17 51.17 49.17 51.17 50.31 52.29 50.31 52.29 51.46 43.35 51.46 43.35 50.31 44.5 50.31 44.5 48.1 42.36 48.1 42.36 45.88 45.26 45.88 45.26 43.75 46.64 43.75 46.64 45.88 47.84 45.88 47.84 48.1 46.64 48.1 46.64 49.17 48.94 49.17 48.94 48.1"/>
    <polygon class="st8" points="57.89 41.36 57.89 42.46 55.67 42.46 55.67 43.58 54.51 43.58 54.51 44.69 52.32 44.69 52.32 43.58 52.29 43.58 52.29 44.69 52.32 44.69 52.32 47.09 51.17 47.09 51.17 48.1 50.02 48.1 50.02 45.87 48.95 45.87 48.95 42.46 47.84 42.46 47.84 41.36 57.89 41.36"/>
    <rect class="st8" x="52.29" y="43.58" width=".03" height="1.11"/>
    <polygon class="st8" points="56.8 21.26 56.8 26.84 55.65 26.84 55.65 27.94 54.51 27.94 54.51 30.18 53.45 30.18 53.45 29.06 52.3 29.06 52.3 27.94 50.09 27.94 50.09 26.84 51.16 26.84 51.16 24.57 52.3 24.57 52.3 21.26 50.09 21.26 50.09 18.99 51.17 18.99 51.17 17.88 52.3 17.88 52.3 16.78 53.45 16.78 53.45 15.68 55.65 15.68 55.65 17.88 54.51 17.88 54.51 20.13 55.65 20.13 55.65 21.26 56.8 21.26"/>
    <polygon class="st8" points="20.41 .02 20.41 7.88 19.38 7.88 19.38 11.21 18.25 11.21 18.25 12.34 17.12 12.34 17.12 14.59 16 14.59 16 16.78 14.87 16.78 14.87 10.13 16 10.13 16 7.94 17.12 7.94 17.12 4.55 18.25 4.55 18.25 3.41 19.29 3.41 19.29 .02 20.41 .02"/>
    <polygon class="st8" points="5.35 42.54 5.35 45.85 6.44 45.85 6.44 46.97 5.35 46.97 5.35 48.03 4.22 48.03 4.22 46.98 3.09 46.98 3.09 45.9 1.96 45.9 1.96 41.41 4.22 41.41 4.22 40.33 5.35 40.33 5.35 41.41 6.44 41.41 6.44 42.54 5.35 42.54"/>
  </g>
  <g id="_Слой_5" data-name="Слой_5">
    <rect class="st10" x="21.02" y="24.57" width="2.23" height=".05"/>
    <rect class="st10" x="24.31" y="24.57" width=".07" height=".05"/>
    <polygon class="st3" points="47.84 34.66 47.84 41.35 46.65 41.35 46.65 44.82 45.57 44.82 45.57 49.17 26.63 49.17 26.63 48.04 24.38 48.04 24.38 46.98 21.02 46.98 21.02 42.46 19.94 42.46 19.94 41.37 21.02 41.37 21.02 40.24 19.94 40.24 19.94 38.04 12.05 38.04 12.05 26.89 17.63 26.89 17.63 25.7 18.75 25.7 18.75 24.62 23.25 24.62 23.25 18.99 24.31 18.99 24.31 14.27 24.33 14.27 24.33 12.32 24.38 12.32 24.38 12.31 24.33 12.31 24.33 12.32 23.24 12.32 23.24 10.04 26.53 10.04 26.53 11.19 27.7 11.19 27.7 12.31 29.9 12.31 29.9 13.43 34.41 13.43 34.41 14.27 40.03 14.27 40.03 12.31 42.24 12.31 42.24 10.05 43.39 10.05 43.39 7.8 45.54 7.8 45.54 10.05 45.57 10.05 45.57 12.31 45.59 12.31 45.59 20.81 45.57 20.81 45.57 22.93 46.96 22.93 46.96 31.53 45.57 31.53 45.57 34.66 47.84 34.66"/>
    <rect class="st10" x="24.31" y="24.57" width=".07" height=".05"/>
    <rect class="st10" x="24.33" y="12.31" width=".05" height=".01"/>
    <rect class="st10" x="24.31" y="24.57" width=".07" height=".05"/>
    <rect class="st10" x="24.33" y="12.31" width=".05" height=".01"/>
  </g>
  <g id="_Слой_4" data-name="Слой_4">
    <polygon class="st0" points="17.61 31.34 17.61 35.78 16.47 35.78 16.47 36.89 7.57 36.89 7.57 34.66 6.46 34.66 6.46 32.43 7.57 32.43 7.57 30.15 8.71 30.15 8.71 29.09 9.8 29.09 9.8 26.89 14.29 26.89 14.29 29.09 15.36 29.09 15.36 30.15 16.47 30.15 16.47 31.34 17.61 31.34"/>
    <polygon class="st7" points="42.2 23.47 42.2 24.56 38.85 24.56 38.85 25.69 36.66 25.69 36.66 26.86 31.04 26.86 31.04 25.69 29.9 25.69 29.9 24.56 28.82 24.56 28.82 23.47 26.53 23.47 26.53 24.59 21.02 24.59 21.02 23.47 18.75 23.47 18.75 22.39 17.63 22.39 17.63 21.26 16.47 21.26 16.47 20.13 20.92 20.13 20.92 21.26 27.64 21.26 27.64 22.39 31.03 22.39 31.03 23.47 42.2 23.47"/>
  </g>
  <g id="_Слой_3" data-name="Слой_3">
    <rect class="st1" x="31.06" y="33.6" width="1.13" height="2.22"/>
    <rect class="st1" x="6.44" y="34.66" width="1.13" height="2.25"/>
    <polygon class="st2" points="10.91 30.15 10.91 34.7 8.72 34.7 8.72 32.43 9.78 32.43 9.78 30.15 10.91 30.15"/>
    <polygon class="st2" points="15.39 33.6 15.39 34.7 13.16 34.7 13.16 31.27 14.29 31.27 14.29 33.6 15.39 33.6"/>
    <rect class="st1" x="19.87" y="27.95" width="1.11" height="3.3" transform="translate(40.84 59.19) rotate(180)"/>
    <rect class="st1" x="23.25" y="24.62" width="1.11" height="2.22" transform="translate(47.61 51.45) rotate(180)"/>
    <rect class="st1" x="24.33" y="26.84" width="1.11" height="1.11" transform="translate(49.76 54.78) rotate(180)"/>
    <rect class="st1" x="44.46" y="40.24" width="1.11" height="1.11" transform="translate(90.04 81.59) rotate(180)"/>
    <rect class="st1" x="38.92" y="41.35" width="1.11" height="2.31" transform="translate(78.95 85.01) rotate(180)"/>
    <rect class="st1" x="45.57" y="41.35" width="1.11" height="1.11" transform="translate(92.25 83.81) rotate(180)"/>
    <rect class="st1" x="45.57" y="44.77" width="1.11" height="1.11" transform="translate(92.25 90.64) rotate(180)"/>
    <polygon class="st1" points="45.57 46.91 45.57 49.17 42.2 49.17 42.2 48.06 44.46 48.06 44.46 46.91 45.57 46.91"/>
    <polygon class="st1" points="29.95 48.09 33.31 48.09 33.31 49.17 38.92 49.17 38.92 50.31 29.95 50.31 29.95 49.17 28.82 49.17 28.82 48.06 29.95 48.06 29.95 48.09"/>
    <rect class="st1" x="32.2" y="43.66" width="6.72" height="1.11"/>
    <polygon class="st1" points="32.2 44.77 32.2 45.88 33.31 45.88 33.31 46.98 34.44 46.98 34.44 48.09 33.31 48.09 33.31 48.06 29.95 48.06 29.95 46.98 28.82 46.98 28.82 45.88 27.7 45.88 27.7 44.77 32.2 44.77"/>
    <rect class="st1" x="29.95" y="48.06" width="3.36" height=".03"/>
    <rect class="st1" x="29.95" y="48.06" width="3.36" height=".03"/>
    <rect class="st1" x="27.69" y="18.99" width="1.11" height="1.11" transform="translate(56.49 39.08) rotate(180)"/>
    <rect class="st1" x="24.31" y="17.88" width="3.38" height="1.11" transform="translate(52.01 36.86) rotate(180)"/>
    <polygon class="st4" points="40.02 13.43 40.02 15.67 38.85 15.67 38.85 14.56 37.75 14.56 37.75 15.67 36.64 15.67 36.64 14.56 32.15 14.56 32.15 15.67 29.9 15.67 29.9 14.56 31.03 14.56 31.03 12.32 29.9 12.32 29.9 10.06 28.78 10.06 28.78 7.81 31.03 7.81 31.03 8.94 32.15 8.94 32.15 7.81 33.26 7.81 33.26 8.94 34.37 8.94 34.37 12.31 36.64 12.31 36.64 11.19 38.86 11.19 38.86 13.43 40.02 13.43"/>
    <polygon class="st4" points="51.21 32.42 51.21 33.55 48.97 33.55 48.97 34.68 47.83 34.68 47.83 33.55 46.71 33.55 46.71 34.68 45.57 34.68 45.57 29.06 46.71 29.06 46.71 23.47 45.58 23.47 45.58 20.13 46.71 20.13 46.71 21.2 48.96 21.2 48.96 22.34 47.83 22.34 47.83 23.47 48.96 23.47 48.96 27.96 48.97 27.96 48.97 27.94 50.1 27.94 50.1 32.42 51.21 32.42"/>
    <polygon class="st1" points="27.68 14.56 27.68 16.78 25.42 16.78 25.42 13.44 26.53 13.44 26.53 14.56 27.68 14.56"/>
    <polygon class="st1" points="38.91 20.13 38.91 21.23 37.77 21.23 37.77 22.34 33.28 22.34 33.28 21.23 36.66 21.23 36.66 20.13 38.91 20.13"/>
    <polygon class="st1" points="43.34 12.32 43.34 21.2 42.24 21.2 42.24 18.99 40.02 18.99 40.02 16.78 41.13 16.78 41.13 15.67 42.24 15.67 42.24 12.32 43.34 12.32"/>
    <rect class="st1" x="18.19" y="26.27" width="1.11" height="2.24" transform="translate(46.14 8.65) rotate(90)"/>
    <rect class="st1" x="29.37" y="35.22" width="1.13" height="2.25" transform="translate(66.29 6.41) rotate(90)"/>
    <polygon class="st11" points="28.81 32.38 28.81 35.83 27.68 35.83 27.68 36.91 25.45 36.91 25.45 38.03 24.31 38.03 24.31 34.71 26.55 34.71 26.55 33.6 27.68 33.6 27.68 32.38 28.81 32.38"/>
    <rect class="st1" x="26.56" y="35.81" width="1.12" height="3.32" transform="translate(-10.36 64.59) rotate(-90)"/>
    <rect class="st1" x="19.86" y="33.56" width="1.13" height="10.07" transform="translate(-18.17 59.02) rotate(-90)"/>
    <rect class="st1" x="10.91" y="33.57" width="1.13" height="7.81" transform="translate(-26 48.95) rotate(-90)"/>
  </g>
  <g id="_Слой_8" data-name="Слой_8">
    <rect class="st9" x="55.6" y="23.5" width="1.09" height="1.1"/>
    <polygon class="st9" points="52.3 23.48 52.3 21.29 53.4 21.29 53.4 20.2 54.5 20.2 54.5 21.3 53.4 21.3 53.4 22.38 55.6 22.38 55.6 23.48 52.3 23.48"/>
    <rect class="st9" x="54.5" y="24.6" width="1.1" height="1.1"/>
    <polygon class="st12" points="10.41 19.69 10.41 20.79 9.32 20.79 9.32 21.89 8.22 21.89 8.22 22.98 7.12 22.98 7.12 21.89 6.03 21.89 6.03 20.79 4.93 20.79 4.93 19.69 6.03 19.69 6.03 18.59 7.12 18.59 7.12 17.5 8.22 17.5 8.22 18.59 9.32 18.59 9.32 19.69 10.41 19.69"/>
    <rect class="st6" x="13.13" y="48.12" width="1.1" height="1.1" transform="translate(27.36 97.34) rotate(180)"/>
    <rect class="st5" x="14.23" y="48.12" width="1.1" height="1.1" transform="translate(29.55 97.34) rotate(180)"/>
    <rect class="st5" x="12.03" y="48.12" width="1.1" height="1.1" transform="translate(25.16 97.34) rotate(180)"/>
    <rect class="st6" x="15.32" y="48.12" width="1.1" height="1.1" transform="translate(31.75 97.34) rotate(180)"/>
    <rect class="st5" x="16.42" y="48.12" width="1.1" height="1.1" transform="translate(33.94 97.34) rotate(180)"/>
    <rect class="st6" x="26.65" y="51.45" width="1.1" height="1.1" transform="translate(54.4 104) rotate(180)"/>
    <rect class="st5" x="27.75" y="51.45" width="1.1" height="1.1" transform="translate(56.6 104) rotate(180)"/>
    <rect class="st5" x="25.55" y="51.45" width="1.1" height="1.1" transform="translate(52.21 104) rotate(180)"/>
    <rect class="st6" x="28.85" y="51.45" width="1.1" height="1.1" transform="translate(58.79 104) rotate(180)"/>
    <rect class="st5" x="29.94" y="51.45" width="1.1" height="1.1" transform="translate(60.99 104) rotate(180)"/>
    <rect class="st6" x="40.04" y="49.19" width="1.12" height="1.1" transform="translate(81.19 99.48) rotate(180)"/>
    <rect class="st5" x="41.15" y="49.19" width="1.12" height="1.1" transform="translate(83.42 99.48) rotate(180)"/>
    <rect class="st5" x="38.92" y="49.19" width="1.12" height="1.1" transform="translate(78.96 99.48) rotate(180)"/>
    <rect class="st6" x="42.27" y="49.19" width="1.12" height="1.1" transform="translate(85.65 99.48) rotate(180)"/>
    <rect class="st5" x="43.38" y="49.19" width="1.12" height="1.1" transform="translate(87.88 99.48) rotate(180)"/>
    <polygon class="st12" points="55.93 36.91 55.93 38.01 54.83 38.01 54.83 39.1 53.73 39.1 53.73 40.2 52.63 40.2 52.63 39.1 51.54 39.1 51.54 38.01 50.44 38.01 50.44 36.91 51.54 36.91 51.54 35.81 52.63 35.81 52.63 34.71 53.73 34.71 53.73 35.81 54.83 35.81 54.83 36.91 55.93 36.91"/>
  </g>
</svg>