<?xml version="1.0" encoding="UTF-8"?>
<svg xmlns="http://www.w3.org/2000/svg" viewBox="0 0 47.98 54.02">
  <defs>
    <style>
      .cls-1 {
        fill: #000001;
      }

      .cls-2 {
        fill: #452628;
      }

      .cls-3 {
        fill: #fff;
      }

      .cls-4 {
        fill: #fcf8dc;
      }

      .cls-5 {
        fill: #412b2d;
      }

      .cls-6 {
        fill: #e8879e;
      }

      .cls-7 {
        fill: #6f5456;
      }

      .cls-8 {
        fill: #a8817f;
      }

      .cls-9 {
        fill: #533637;
      }
    </style>
  </defs>
  <g id="_Слой_6" data-name="Слой 6">
    <polygon class="cls-8" points="42.99 19.03 42.99 30.04 41.99 30.04 41.99 32 41 32 41 41.05 39.95 41.05 39.95 42.02 38.99 42.02 38.99 44.06 37.99 44.06 37.99 44.96 35.99 44.96 35.99 46.07 33.98 46.07 33.98 47.03 32 47.03 32 48.03 29.96 48.03 29.96 49.03 29 49.03 29 50.04 27.05 50.04 27.05 51.04 23.99 51.04 23.99 52.03 20.99 52.03 20.99 53.04 17.98 53.04 17.98 51.18 16.99 51.18 16.99 47.03 17.98 47.03 17.98 44.02 11.98 44.02 11.98 45.03 8.99 45.03 8.99 46.01 5.01 46.01 5.01 43.58 3 43.58 3 41 5.01 41 5.01 40.07 6.99 40.07 6.99 38.99 8.99 38.99 8.99 38.03 9.99 38.03 9.99 37.05 11.99 37.05 11.99 36.21 10.65 36.21 10.65 29.67 11.99 29.67 11.99 28.03 12.99 28.03 12.99 27.03 7.75 27.03 7.75 17.04 11.89 17.04 11.89 15.53 14 15.53 14 9.85 17 9.85 17 3.02 16.04 3.02 16.04 2 15 2 15 1 17.95 1 17.95 2 20 2 20 3.02 19.99 3.02 19.99 3.03 26.49 3.03 26.49 4.03 31 4.03 31 3.03 32 3.03 32 1 33 1 33 0 35 0 35 14.54 33.79 14.54 33.79 17.04 37.99 17.04 37.99 27.03 35.99 27.03 35.99 28.53 36.98 28.53 36.98 35.03 37.99 35.03 37.99 38.03 38.99 38.03 38.99 39.99 39.95 39.99 39.95 31.02 41 31.02 41 29.04 41.99 29.04 41.99 19.03 42.99 19.03"/>
  </g>
  <g id="_Слой_4" data-name="Слой 4">
    <polygon class="cls-4" points="20.99 21.02 20.99 25.35 17.99 25.35 17.99 23.03 19.99 23.03 19.99 21.02 20.99 21.02"/>
    <polygon class="cls-6" points="12.99 23.03 12.99 24.04 11.99 24.04 11.99 25.04 10.99 25.04 10.99 26.02 9.99 26.02 9.99 27.03 3.98 27.03 3.98 26.02 2.97 26.02 2.97 25.04 1.97 25.04 1.97 21.02 2.98 21.02 2.98 19.03 3.98 19.03 3.98 18.04 4.99 18.04 4.99 17.03 8.99 17.03 8.99 18.04 9.99 18.04 9.99 19.03 10.99 19.03 10.99 21.02 11.99 21.02 11.99 23.03 12.99 23.03"/>
  </g>
  <g id="_Слой_3" data-name="Слой 3">
    <polygon class="cls-7" points="20.99 32.04 20.99 35.03 18.99 35.03 18.99 36.01 20.99 36.01 20.99 38.03 10.9 38.03 10.9 37.05 11.98 37.05 11.98 37.03 16.99 37.03 16.99 33.04 15.99 33.04 15.99 34.04 14.99 34.04 14.99 31.04 15.99 31.04 15.99 32.04 20.99 32.04"/>
    <polygon class="cls-7" points="10.9 37.03 10.9 37.05 9.99 37.05 9.99 29.02 10.99 29.02 10.99 28.03 11.99 28.03 11.99 30.02 10.99 30.02 10.99 36.04 11.98 36.04 11.98 37.03 10.9 37.03"/>
    <polygon class="cls-2" points="38.99 16.04 38.99 18.76 37.81 18.76 37.81 17.93 35.98 17.93 35.98 14.16 34.99 14.16 34.99 8.02 35.99 8.02 35.99 9.05 36.99 9.05 36.99 12.04 37.99 12.04 37.99 16.04 38.99 16.04"/>
    <polygon class="cls-2" points="47.98 16.04 47.98 17.03 46.98 17.03 46.98 19.02 45.98 19.02 45.98 20.03 42.99 20.03 42.99 16.04 43.99 16.04 43.99 15.04 46.98 15.04 46.98 16.04 47.98 16.04"/>
    <polygon class="cls-7" points="23 22.03 23 24.02 22 24.02 22 25.02 20.99 25.02 20.99 26.03 16.99 26.03 16.99 27.03 10.99 27.03 10.99 26.03 15.99 26.03 15.99 25.03 19.99 25.03 19.99 24.03 21 24.03 21 23.03 22 23.03 22 22.03 23 22.03"/>
    <rect class="cls-7" x="17.99" y="19.03" width="1" height="1.99" transform="translate(36.99 40.06) rotate(180)"/>
    <polygon class="cls-7" points="26.99 9.05 26.99 11.04 23 11.04 23 12.04 22 12.04 22 10.05 23 10.05 23 9.05 26.99 9.05"/>
    <polygon class="cls-7" points="18.99 12.04 18.99 13.03 15 13.03 15 12.04 13.99 12.04 13.99 11.04 15.99 11.04 15.99 12.04 18.99 12.04"/>
    <rect class="cls-3" x="13" y="13.02" width="3.99" height="2"/>
    <polygon class="cls-3" points="26.99 14.03 26.99 15.03 21.99 15.03 21.99 13.03 25.98 13.03 25.98 14.03 26.99 14.03"/>
    <polygon class="cls-9" points="18.99 4.03 18.99 5.02 17.99 5.02 17.99 6.02 17 6.02 17 3.03 17.99 3.03 17.99 4.03 18.99 4.03"/>
    <rect class="cls-1" x="22.99" y="12.04" width="2" height="2.99"/>
    <rect class="cls-1" x="14.99" y="13.02" width="2" height="2"/>
    <polygon class="cls-9" points="34 3.04 34 10.02 32.99 10.02 32.99 8.02 32 8.02 32 7.02 31 7.02 31 6.02 32 6.02 32 5.02 32.99 5.02 32.99 3.04 34 3.04"/>
    <polygon class="cls-7" points="15 18.02 15 19.02 14.99 19.02 14.99 22.03 13.99 22.03 13.99 19.02 12.99 19.02 12.99 18.02 11.99 18.02 11.99 17.03 12.73 17.03 12.73 17.02 11.99 17.02 11.99 17.03 9.99 17.03 9.99 16.03 12.99 16.03 12.99 17.02 13.99 17.02 13.99 18.02 15 18.02"/>
    <polygon class="cls-7" points="5.98 20.03 5.98 24.03 3.98 24.03 3.98 22.03 4.98 22.03 4.98 20.03 5.98 20.03"/>
    <polygon class="cls-7" points="17.99 17.02 17.99 19.03 16.99 19.03 16.99 18.02 15.99 18.02 15.99 17.02 17.99 17.02"/>
    <rect class="cls-7" x="11.99" y="17.02" width=".74" height=".01"/>
    <rect class="cls-7" x="11.99" y="18.02" width="1" height=".01"/>
    <rect class="cls-7" x="11.99" y="17.02" width=".74" height=".01"/>
    <rect class="cls-7" x="11.99" y="17.02" width=".74" height=".01"/>
    <rect class="cls-7" x="22" y="24.02" width=".99" height=".01"/>
    <rect class="cls-7" x="19.98" y="24.03" width=".01" height="1"/>
    <rect class="cls-7" x="20.99" y="25.02" width="1.01" height=".01"/>
    <rect class="cls-7" x="20.99" y="23.03" width=".01" height="1"/>
    <polygon class="cls-7" points="38.99 18.03 38.99 25.03 37.99 25.03 37.99 28.02 36.99 28.02 36.99 30.04 35.99 30.04 35.99 31.03 34.99 31.03 34.99 32.02 32.99 32.02 32.99 31.02 33.98 31.02 33.98 30.04 34.99 30.04 34.99 29.04 35.99 29.04 35.99 27.03 36.99 27.03 36.99 24.03 37.99 24.03 37.99 19.03 36.99 19.03 36.99 18.02 35.99 18.02 35.99 17.02 34.99 17.02 34.99 18.03 33.99 18.03 33.99 19.03 33 19.03 33 25.03 32 25.03 32 26.02 31 26.02 31 24.03 32 24.03 32 20.02 31 20.02 31 17.04 33 17.04 33 13.03 33.99 13.03 33.99 12.04 34.99 12.04 34.99 13.03 36 13.03 36 14.04 36.99 14.04 36.99 16.04 37.99 16.04 37.99 18.03 38.99 18.03"/>
    <rect class="cls-7" x="10.9" y="37.03" width=".09" height=".02"/>
    <rect class="cls-7" x="10.9" y="37.03" width="1.08" height=".02"/>
    <rect class="cls-7" x="10.9" y="37.03" width="1.08" height=".02"/>
    <polygon class="cls-7" points="6.97 45.03 6.97 47.03 5.01 47.03 5.01 48.03 3 48.03 3 45.03 0 45.03 0 43.02 1 43.02 1 42.04 5.01 42.04 5.01 44.02 5.99 44.02 5.99 45.03 6.97 45.03"/>
    <polygon class="cls-7" points="19.98 52.03 19.98 53.04 17.98 53.04 17.98 54.02 14.99 54.02 14.99 51.04 12.99 51.04 12.99 49.03 14 49.03 14 48.03 16.99 48.03 16.99 50.04 17.98 50.04 17.98 51.04 18.99 51.04 18.99 52.03 19.98 52.03"/>
    <polygon class="cls-7" points="9.99 22.03 9.99 24.03 7.99 24.03 7.99 20.04 8.99 20.04 8.99 22.03 9.99 22.03"/>
    <polygon class="cls-2" points="31 4.03 31 5.02 29.99 5.02 29.99 6.02 23.99 6.02 23.99 7.03 21.99 7.03 21.99 6.02 20 6.02 20 5.03 21 5.03 21 4.03 22.99 4.03 22.99 5.03 24 5.03 24 3.03 22.99 3.03 22.99 2.02 21.99 2.02 21.99 2 21.97 2 21.97 0 22.99 0 22.99 1 24 1 24 2.02 25.99 2.02 25.99 3.03 26.98 3.03 26.98 2.03 27.99 2.03 27.99 4.03 31 4.03"/>
  </g>
  <g id="_Слой_5" data-name="Слой 5">
    <path class="cls-5" d="M28.99,12.02v-1.03h-2v-.98h-6v4.03h-1v-2h-1v-2.03h-2v-1h-6v7.03h3.01v.99h4.99v-1.99h2v2.99h3v1h5v-2.98h1.01v-4.03h-1.01ZM18.99,14.04h-1v1.99h-3v-1h-3v-4.98h4v1h1.96v1.99h1.04v1ZM28.99,15.04h-1v2.99h-2.99v-1.01h-3v-5.98h4.03v1h1.96v1h1v2Z"/>
    <rect class="cls-5" x="25.99" y="11.04" width=".04" height="1"/>
  </g>
</svg>