<?xml version="1.0" encoding="UTF-8"?>
<svg xmlns="http://www.w3.org/2000/svg" viewBox="0 0 8.9 10.06">
  <defs>
    <style>
      .cls-1 {
        fill: #402a2c;
      }

      .cls-2 {
        fill: #fff;
      }

      .cls-3 {
        fill: #9e817e;
      }

      .cls-4 {
        fill: #8188a2;
      }

      .cls-5 {
        fill: #d2879d;
      }

      .cls-6 {
        fill: #685557;
      }

      .cls-7 {
        fill: #4d393a;
      }

      .cls-8 {
        fill: #fcf9dd;
      }

      .cls-9 {
        fill: #000205;
      }

      .cls-10 {
        fill: #dfd7cb;
      }
    </style>
  </defs>
  <g id="_Слой_4" data-name="Слой 4">
    <polygon class="cls-3" points="8.66 7.91 8.66 6.46 8.42 6.46 8.42 6.22 8.19 6.22 8.19 2.4 7.94 2.4 7.94 1.45 7.7 1.45 7.7 0 7.46 0 7.46 .23 7.22 .23 7.22 .72 6.99 .72 6.99 1.45 6.74 1.45 6.74 1.2 6.02 1.2 6.02 .47 5.78 .47 5.78 .96 5.54 .96 5.54 .72 5.3 .72 5.3 .47 5.06 .47 5.06 1.2 4.82 1.2 4.82 .71 4.58 .71 4.58 1.2 4.37 1.2 4.37 .95 4.12 .95 4.12 .71 3.87 .71 3.87 .49 3.38 .49 3.38 1.2 3.62 1.2 3.62 1.92 3.38 1.92 3.38 2.88 3.16 2.88 3.16 3.11 3.38 3.11 3.38 3.41 3.14 3.41 3.14 3.6 2.9 3.6 2.9 3.84 2.66 3.84 2.66 4.09 2.42 4.09 2.42 4.33 1.23 4.33 1.23 4.57 .74 4.57 .74 4.81 .51 4.81 .51 5.52 .25 5.52 .25 5.62 .85 5.62 .85 6.88 .74 6.88 .74 6.96 2.18 6.96 2.18 8.13 1.95 8.13 1.95 9.37 2.18 9.37 2.18 9.82 2.42 9.82 2.42 10.06 8.65 10.06 8.65 9.35 8.9 9.35 8.9 7.91 8.66 7.91"/>
  </g>
  <g id="_Слой_5" data-name="Слой 5">
    <polygon class="cls-10" points="7.47 7.43 7.47 8.63 7.7 8.63 7.7 9.35 7.46 9.35 7.46 10.06 3.37 10.06 3.37 9.59 3.14 9.59 3.14 9.11 2.9 9.11 2.9 6.95 3.37 6.95 3.37 8.14 3.62 8.14 3.62 8.39 4.81 8.39 4.81 8.14 6.98 8.14 6.98 7.91 7.22 7.91 7.22 7.19 7.46 7.19 7.46 6.7 7.7 6.7 7.7 7.43 7.47 7.43"/>
    <rect class="cls-10" x="7.7" y="5.98" width=".24" height=".72"/>
  </g>
  <g id="_Слой_3" data-name="Слой 3">
    <rect class="cls-6" x="3.14" y="4.79" width=".24" height=".24"/>
    <polygon class="cls-5" points="2.44 5.74 2.44 6.46 1.96 6.46 1.96 6.72 .49 6.72 .49 6.46 .24 6.46 .24 6.23 0 6.23 0 5.74 .24 5.74 .24 5.51 .49 5.51 .49 4.77 .73 4.77 .73 4.53 1.46 4.53 1.46 4.77 1.71 4.77 1.71 5.02 1.96 5.02 1.96 5.51 2.21 5.51 2.21 5.74 2.44 5.74"/>
    <rect class="cls-6" x="2.19" y="4.31" width=".95" height=".24"/>
    <rect class="cls-6" x="2.66" y="3.83" width=".72" height=".24"/>
    <rect class="cls-6" x="3.38" y="2.87" width=".96" height=".24"/>
    <rect class="cls-6" x="5.3" y="3.11" width="1.45" height=".24"/>
    <rect class="cls-2" x="4.82" y="3.35" width="1.21" height=".73"/>
    <rect class="cls-2" x="2.9" y="3.11" width=".97" height=".49"/>
    <rect class="cls-6" x="3.38" y="4.07" width=".48" height=".24"/>
    <rect class="cls-4" x="3.38" y="3.59" width=".48" height=".24"/>
    <rect class="cls-4" x="5.06" y="4.07" width=".72" height=".24"/>
    <polygon class="cls-6" points="1.95 5.98 1.95 6.22 1.22 6.22 1.22 5.25 1.46 5.25 1.46 5.74 1.71 5.74 1.71 5.98 1.95 5.98"/>
    <polygon class="cls-6" points=".98 5.26 .98 6.22 .5 6.22 .5 5.74 .74 5.74 .74 5.26 .98 5.26"/>
    <polygon class="cls-8" points="5.3 5.03 5.3 5.99 5.06 5.99 5.06 6.22 4.34 6.22 4.34 5.75 4.82 5.75 4.82 5.51 5.06 5.51 5.06 5.03 5.3 5.03"/>
    <polygon class="cls-1" points="6.75 1.19 6.75 1.67 5.78 1.67 5.78 1.43 5.55 1.43 5.55 1.67 5.07 1.67 5.07 1.91 4.82 1.91 4.82 1.43 4.58 1.43 4.58 .71 4.82 .71 4.82 1.19 5.07 1.19 5.07 .47 5.31 .47 5.31 .71 5.55 .71 5.55 .95 5.78 .95 5.78 .47 6.02 .47 6.02 1.19 6.75 1.19"/>
    <polygon class="cls-7" points="7.46 1.19 7.46 2.63 6.98 2.63 6.98 1.43 7.22 1.43 7.22 1.19 7.46 1.19"/>
    <polygon class="cls-7" points="4.34 1.67 4.34 1.91 4.1 1.91 4.1 2.15 3.86 2.15 3.86 1.19 4.1 1.19 4.1 1.67 4.34 1.67"/>
    <rect class="cls-7" x="3.62" y=".95" width=".24" height=".24"/>
    <polygon class="cls-1" points="8.18 3.83 8.18 4.32 8.42 4.32 8.42 4.8 8.18 4.8 8.18 5.27 8.42 5.27 8.42 5.99 7.94 5.99 7.94 5.76 7.7 5.76 7.7 3.59 7.94 3.59 7.94 2.39 8.18 2.39 8.18 3.11 8.42 3.11 8.42 3.83 8.18 3.83"/>
    <polygon class="cls-6" points="5.55 6.23 3.63 6.23 3.63 6.47 3.14 6.47 3.14 6.72 .75 6.72 .75 6.96 1.33 6.96 2.19 6.96 2.43 6.96 3.38 6.96 3.39 6.96 3.39 6.72 3.87 6.72 3.87 6.47 5.55 6.47 5.55 6.23"/>
    <rect class="cls-9" x="3.14" y="3.11" width=".49" height=".48" transform="translate(.03 6.74) rotate(-90)"/>
    <rect class="cls-9" x="5.06" y="3.59" width=".48" height=".48" transform="translate(1.47 9.13) rotate(-90)"/>
  </g>
</svg>